<?xml version="1.0" encoding="UTF-8" standalone="no"?>
<svg
   xmlns:dc="http://purl.org/dc/elements/1.1/"
   xmlns:cc="http://creativecommons.org/ns#"
   xmlns:rdf="http://www.w3.org/1999/02/22-rdf-syntax-ns#"
   xmlns:svg="http://www.w3.org/2000/svg"
   xmlns="http://www.w3.org/2000/svg"
   xmlns:sodipodi="http://sodipodi.sourceforge.net/DTD/sodipodi-0.dtd"
   xmlns:inkscape="http://www.inkscape.org/namespaces/inkscape"
   id="Layer_5"
   enable-background="new 0 0 64 64"
   height="512"
   viewBox="0 0 64 64"
   width="512"
   version="1.1"
   sodipodi:docname="informasi.svg"
   inkscape:version="0.92.4 (5da689c313, 2019-01-14)">
  <metadata
     id="metadata57">
    <rdf:RDF>
      <cc:Work
         rdf:about="">
        <dc:format>image/svg+xml</dc:format>
        <dc:type
           rdf:resource="http://purl.org/dc/dcmitype/StillImage" />
      </cc:Work>
    </rdf:RDF>
  </metadata>
  <defs
     id="defs55" />
  <sodipodi:namedview
     pagecolor="#ffffff"
     bordercolor="#666666"
     borderopacity="1"
     objecttolerance="10"
     gridtolerance="10"
     guidetolerance="10"
     inkscape:pageopacity="0"
     inkscape:pageshadow="2"
     inkscape:window-width="1920"
     inkscape:window-height="986"
     id="namedview53"
     showgrid="false"
     inkscape:zoom="0.4609375"
     inkscape:cx="279.86441"
     inkscape:cy="256"
     inkscape:window-x="-11"
     inkscape:window-y="-11"
     inkscape:window-maximized="1"
     inkscape:current-layer="Layer_5" />
  <path
     d="m51 44v4h-22c-.43-.57-.9-1.1-1.4-1.6-.92-.93-1.97-1.73-3.11-2.4z"
     fill="#969faa"
     id="path2" />
  <path
     d="m55 52c0 1.1-.9 2-2 2h-21.3c-.45-2.22-1.39-4.26-2.7-6h22c1.1 0 2.1.45 2.83 1.17.72.73 1.17 1.73 1.17 2.83z"
     fill="#969faa"
     id="path4" />
  <path
     d="m8 62h-6v-5c0-6.54 4.2-12.11 10.04-14.16.13 3.2.58 6.38 1.36 9.48.82 3.28 2 6.47 3.52 9.52l.08.16z"
     fill="#ff826e"
     id="path6"
     style="fill:#6699ff" />
  <path
     d="m26 62h-9l.08-.16c1.52-3.05 2.7-6.24 3.52-9.52.78-3.09 1.23-6.27 1.36-9.47.88.3 1.73.69 2.53 1.15 1.14.67 2.19 1.47 3.11 2.4.5.5.97 1.03 1.4 1.6 1.31 1.74 2.25 3.78 2.7 6 .2.97.3 1.97.3 3v5z"
     fill="#ff826e"
     id="path8"
     style="fill:#6699ff" />
  <path
     d="m17 48 3.6 4.32c-.82 3.28-2 6.47-3.52 9.52l-.08.16-.08-.16c-1.52-3.05-2.7-6.24-3.52-9.52z"
     fill="#ccd1d9"
     id="path10" />
  <path
     d="m21.96 42.85c-.13 3.2-.58 6.38-1.36 9.47l-3.6-4.32 3.23-5.65c.59.13 1.17.29 1.73.5z"
     fill="#e6e9ed"
     id="path12"
     style="fill:#6699ff" />
  <path
     d="m13.77 42.35 3.23 5.65-3.6 4.32c-.78-3.1-1.23-6.28-1.36-9.48.56-.2 1.14-.36 1.73-.49z"
     fill="#e6e9ed"
     id="path14"
     style="fill:#6699ff" />
  <path
     d="m58 44h-40c-2.209 0-4-1.791-4-4v-26c0-2.209 1.791-4 4-4h40c2.209 0 4 1.791 4 4v26c0 2.209-1.791 4-4 4z"
     fill="#ccd1d9"
     id="path16" />
  <path
     d="m57 40h-38c-.552 0-1-.448-1-1v-24c0-.552.448-1 1-1h38c.552 0 1 .448 1 1v24c0 .552-.448 1-1 1z"
     fill="#69d6f4"
     id="path18"
     style="fill:#00cc00" />
  <path
     d="m49.99 14c-.08 2.69-1.09 5.26-2.87 7.29l-4.12 4.71h-10l-4.12-4.71c-.93-1.06-1.65-2.27-2.14-3.57-.44-1.19-.69-2.44-.73-3.72-.01-.12-.01-.25-.01-.37 0-1.27.2-2.49.58-3.63 1.52-4.64 5.9-8 11.05-8h.74c3.21 0 6.12 1.3 8.22 3.41 1.28 1.27 2.26 2.84 2.83 4.59.38 1.14.58 2.36.58 3.63 0 .12 0 .25-.01.37z"
     fill="#ffeaa7"
     id="path20"
     style="fill:#ffcc00" />
  <path
     d="m33 26v4 1c0 2.76 2.24 5 5 5 1.38 0 2.63-.56 3.54-1.46.9-.91 1.46-2.16 1.46-3.54v-1-4z"
     fill="#aab2bd"
     id="path22" />
  <circle
     cx="38"
     cy="8"
     fill="#ff826e"
     r="2"
     id="circle24" />
  <path
     d="m18 28.08c3.4.48 6 3.39 6 6.92 0 1.96-.8 3.73-2.1 5-1.26 1.24-2.98 2-4.9 2-3.87 0-7-3.13-7-7 0-2.8 1.63-5.2 4-6.32.91-.44 1.92-.68 3-.68.34 0 .68.02 1 .08z"
     fill="#f0d0b4"
     id="path26" />
  <path
     d="m20.23 42.35-3.23 5.65-3.23-5.65c1.04-.23 2.12-.35 3.23-.35s2.19.12 3.23.35z"
     fill="#f0d0b4"
     id="path28" />
  <path
     d="m16 52h2v2h-2z"
     id="path30" />
  <path
     d="m38 11c1.654 0 3-1.346 3-3s-1.346-3-3-3-3 1.346-3 3 1.346 3 3 3zm0-4c.552 0 1 .449 1 1s-.448 1-1 1-1-.449-1-1 .448-1 1-1z"
     id="path32" />
  <path
     d="m41 21h-2v-6h2v-2h-6v2h2v6h-2v2h6z"
     id="path34" />
  <path
     d="m58 9h-7.891c-1.852-4.678-6.41-8-11.739-8h-.74c-5.328 0-9.887 3.322-11.739 8h-7.891c-2.757 0-5 2.243-5 5v14.082c-2.387 1.386-4 3.965-4 6.918 0 2.765 1.41 5.205 3.549 6.643-6.662 1.934-11.549 8.081-11.549 15.357v6h32v-6c0-.679-.056-1.343-.139-2h20.139c1.654 0 3-1.346 3-3 0-2.414-1.721-4.434-4-4.899v-2.101h6c2.757 0 5-2.243 5-5v-26c0-2.757-2.243-5-5-5zm-1 6v24h-33.082c.684-1.178 1.082-2.542 1.082-4 0-3.719-2.555-6.845-6-7.737v-12.263h6.083c.28 2.562 1.331 4.99 3.042 6.947l3.875 4.428v4.625c0 3.309 2.691 6 6 6s6-2.691 6-6v-4.625l3.875-4.428c1.712-1.957 2.763-4.385 3.042-6.947zm-23 12h8v2h-8zm8 4c0 2.206-1.794 4-4 4s-4-1.794-4-4zm-4.37-28h.74c5.861 0 10.63 4.769 10.63 10.63 0 2.576-.935 5.062-2.631 7l-3.823 4.37h-9.093l-3.823-4.37c-1.696-1.938-2.631-4.424-2.631-7 .001-5.861 4.77-10.63 10.631-10.63zm-22.63 11c0-1.654 1.346-3 3-3h7.28c-.138.649-.214 1.319-.248 2h-6.032c-1.103 0-2 .897-2 2v12c-.692 0-1.359.097-2 .263zm-4 21c0-3.309 2.691-6 6-6s6 2.691 6 6-2.691 6-6 6-6-2.691-6-6zm2.286 8.516 2.501 4.378-1.866 2.24c-.439-2.153-.711-4.345-.835-6.566.065-.02.133-.034.2-.052zm3.714-.516c.558 0 1.105.042 1.646.105l-1.646 2.88-1.646-2.879c.541-.064 1.088-.106 1.646-.106zm0 6.562 2.509 3.01c-.634 2.416-1.475 4.778-2.509 7.08-1.034-2.302-1.874-4.663-2.509-7.079zm3.079.571-1.867-2.24 2.501-4.377c.066.018.134.032.2.052-.123 2.22-.395 4.412-.834 6.565zm-17.079 6.867c0-5.622 3.339-10.468 8.131-12.693.401 5.808 1.841 11.409 4.292 16.693h-6.423v-8h-2v8h-4zm28 4h-4v-8h-2v8h-6.423c2.451-5.284 3.891-10.885 4.292-16.693 4.792 2.225 8.131 7.071 8.131 12.693zm23-9c0 .551-.448 1-1 1h-20.527c-.367-1.419-.919-2.761-1.638-4h20.165c1.654 0 3 1.346 3 3zm-4-5h-20.53c-.581-.723-1.227-1.388-1.923-2h22.453zm11-7c0 1.654-1.346 3-3 3h-33.271c-1.028-.57-2.127-1.023-3.277-1.357.29-.195.561-.413.822-.643h34.726c1.103 0 2-.897 2-2v-24c0-1.103-.897-2-2-2h-6.032c-.034-.681-.11-1.351-.248-2h7.28c1.654 0 3 1.346 3 3z"
     id="path36" />
  <path
     d="m21 25h2v2h-2z"
     id="path38" />
  <path
     d="m21 17h2v2h-2z"
     id="path40" />
  <path
     d="m21 21h2v2h-2z"
     id="path42" />
  <path
     d="m46 35h9v2h-9z"
     id="path44" />
  <path
     d="m46 31h9v2h-9z"
     id="path46" />
  <path
     d="m46 27h9v2h-9z"
     id="path48" />
  <path
     d="m48 23h7v2h-7z"
     id="path50" />
</svg>
