<?xml version="1.0" encoding="UTF-8" standalone="no"?>
<svg
   xmlns:dc="http://purl.org/dc/elements/1.1/"
   xmlns:cc="http://creativecommons.org/ns#"
   xmlns:rdf="http://www.w3.org/1999/02/22-rdf-syntax-ns#"
   xmlns:svg="http://www.w3.org/2000/svg"
   xmlns="http://www.w3.org/2000/svg"
   xmlns:sodipodi="http://sodipodi.sourceforge.net/DTD/sodipodi-0.dtd"
   xmlns:inkscape="http://www.inkscape.org/namespaces/inkscape"
   height="180.26944mm"
   viewBox="0 0 511.998 511"
   width="180.26944mm"
   version="1.1"
   id="svg114"
   sodipodi:docname="data_master.svg"
   inkscape:version="0.92.4 (5da689c313, 2019-01-14)"
   enable-background="new">
  <metadata
     id="metadata120">
    <rdf:RDF>
      <cc:Work
         rdf:about="">
        <dc:format>image/svg+xml</dc:format>
        <dc:type
           rdf:resource="http://purl.org/dc/dcmitype/StillImage" />
        <dc:title />
      </cc:Work>
    </rdf:RDF>
  </metadata>
  <defs
     id="defs118" />
  <sodipodi:namedview
     pagecolor="#ffffff"
     bordercolor="#666666"
     borderopacity="1"
     objecttolerance="10"
     gridtolerance="10"
     guidetolerance="10"
     inkscape:pageopacity="0"
     inkscape:pageshadow="2"
     inkscape:window-width="1920"
     inkscape:window-height="986"
     id="namedview116"
     showgrid="false"
     units="mm"
     inkscape:zoom="0.6927593"
     inkscape:cx="-59.183642"
     inkscape:cy="254.04192"
     inkscape:window-x="-11"
     inkscape:window-y="-11"
     inkscape:window-maximized="1"
     inkscape:current-layer="svg114" />
  <path
     d="M 478.45312,421.53125 H 32.980469 c -14.078125,0 -25.488281,-11.41016 -25.488281,-25.48438 V 33.480469 c 0,-14.078125 11.410156,-25.488281 25.488281,-25.488281 H 478.45312 c 14.07422,0 25.48438,11.410156 25.48438,25.488281 V 396.04687 c 0,14.07422 -11.41016,25.48438 -25.48438,25.48438 z m 0,0"
     id="path2"
     inkscape:connector-curvature="0"
     style="fill:#ffd86e" />
  <path
     d="M 503.94141,33.480469 V 396.04687 c 0,14.07422 -11.41016,25.48438 -25.48438,25.48438 h -31.13281 c 14.07812,0 25.48437,-11.41016 25.48437,-25.48438 V 33.480469 c 0,-14.074219 -11.40625,-25.484375 -25.48437,-25.484375 h 31.13281 c 14.07422,0 25.48438,11.410156 25.48438,25.484375 z m 0,0"
     id="path4"
     inkscape:connector-curvature="0"
     style="fill:#ffb509" />
  <path
     d="M 503.9375,360.12891 H 7.492188 v 35.91796 c 0,14.07422 11.410156,25.48438 25.488281,25.48438 H 478.45312 c 14.07422,0 25.48438,-11.41016 25.48438,-25.48438 z m 0,0"
     id="path6"
     inkscape:connector-curvature="0"
     style="fill:#838383" />
  <path
     d="m 503.94141,360.12891 v 35.91796 c 0,14.07422 -11.41016,25.48438 -25.48438,25.48438 h -31.13281 c 14.07812,0 25.48437,-11.41016 25.48437,-25.48438 v -35.91796 z m 0,0"
     id="path8"
     inkscape:connector-curvature="0"
     style="fill:#5a5a5a" />
  <path
     d="M 504.50781,94.933594 H 8.046875 V 33.476562 c 0,-14.074218 11.410156,-25.484374 25.484375,-25.484374 h 445.49219 c 14.07422,0 25.48437,11.410156 25.48437,25.484374 z m 0,0"
     id="path10"
     inkscape:connector-curvature="0"
     style="fill:#acacac" />
  <path
     d="M 504.51172,33.472656 V 94.9375 H 472.80859 V 33.472656 c 0,-14.066406 -11.40625,-25.476562 -25.48437,-25.476562 h 31.69922 c 14.07812,0 25.48828,11.410156 25.48828,25.476562 z m 0,0"
     id="path12"
     inkscape:connector-curvature="0"
     style="fill:#9c9c9c" />
  <path
     d="m 186.27734,421.53125 h 138.875 v 41.85937 h -138.875 z m 0,0"
     id="path14"
     inkscape:connector-curvature="0"
     style="fill:#5a5a5a" />
  <path
     d="m 370.15234,504.45312 h -228.875 c -2.75781,0 -4.99609,-2.23828 -4.99609,-4.99609 v -16.1875 c 0,-10.97656 8.90234,-19.87891 19.87891,-19.87891 h 199.11328 c 10.97656,0 19.875,8.90235 19.875,19.87891 v 16.1875 c 0,2.76172 -2.23438,4.9961 -4.9961,4.99609 z m 0,0"
     id="path16"
     inkscape:connector-curvature="0"
     style="fill:#838383" />
  <path
     d="m 375.14844,483.26562 v 16.19532 c 0,2.75781 -2.23828,4.99609 -4.9961,4.99609 h -17.63281 v -21.19141 c 0,-10.96875 -8.90234,-19.87109 -19.87109,-19.87109 h 22.6289 c 10.97266,0 19.8711,8.89844 19.8711,19.87109 z m 0,0"
     id="path18"
     inkscape:connector-curvature="0"
     style="fill:#5a5a5a" />
  <path
     d="m 295.47656,275.61328 h 162.25781 v 30.75391 H 295.47656 Z m 0,0"
     id="path20"
     inkscape:connector-curvature="0"
     style="fill:#64dcfc" />
  <path
     d="m 295.47656,357.27344 h 162.25781 v 30.75781 H 295.47656 Z m 0,0"
     id="path22"
     inkscape:connector-curvature="0"
     style="fill:#64dcfc" />
  <path
     d="m 438.55078,275.61328 h 19.18359 v 30.75391 h -19.18359 z m 0,0"
     id="path24"
     inkscape:connector-curvature="0"
     style="fill:#00d1fc" />
  <path
     d="m 438.55078,357.27344 h 19.18359 v 30.75781 h -19.18359 z m 0,0"
     id="path26"
     inkscape:connector-curvature="0"
     style="fill:#00d1fc" />
  <path
     style="fill:#0396fd"
     inkscape:connector-curvature="0"
     id="path28"
     d="m 471.17187,275.61328 h -189.1289 c -4,0 -7.2461,-3.24219 -7.2461,-7.24219 v -36.41797 c 0,-4 3.2461,-7.24609 7.2461,-7.24609 h 189.1289 c 4,0 7.2461,3.24609 7.2461,7.24609 v 36.41797 c 0,4 -3.2461,7.24219 -7.2461,7.24219 z m 0,0" />
  <path
     style="fill:#0396fd"
     inkscape:connector-curvature="0"
     id="path30"
     d="m 471.17187,357.27344 h -189.1289 c -4,0 -7.2461,-3.24219 -7.2461,-7.24219 v -36.41797 c 0,-4 3.2461,-7.24609 7.2461,-7.24609 h 189.1289 c 4,0 7.2461,3.24609 7.2461,7.24609 v 36.41797 c 0,4 -3.2461,7.24219 -7.2461,7.24219 z m 0,0" />
  <path
     style="fill:#0396fd"
     inkscape:connector-curvature="0"
     id="path32"
     d="m 471.17187,438.93359 h -189.1289 c -4,0 -7.2461,-3.24218 -7.2461,-7.24218 v -36.41797 c 0,-4.00391 3.2461,-7.2461 7.2461,-7.2461 h 189.1289 c 4,0 7.2461,3.24219 7.2461,7.2461 v 36.41797 c 0,4 -3.2461,7.24218 -7.2461,7.24218 z m 0,0" />
  <path
     d="m 478.41406,231.95312 v 36.41797 c 0,3.9961 -3.23437,7.24219 -7.24219,7.24219 h -16.80468 c 4.00781,0 7.24218,-3.24609 7.24218,-7.24219 v -36.41797 c 0,-3.99609 -3.23437,-7.24218 -7.24218,-7.24218 h 16.80468 c 4.00782,0 7.24219,3.24609 7.24219,7.24218 z m 0,0"
     id="path36"
     inkscape:connector-curvature="0"
     style="fill:#0077f0" />
  <path
     d="m 478.41406,313.60937 v 36.41797 c 0,4.00391 -3.23437,7.24219 -7.24219,7.24219 h -16.80468 c 4.00781,0 7.24218,-3.23828 7.24218,-7.24219 v -36.41797 c 0,-3.99609 -3.23437,-7.24218 -7.24218,-7.24218 h 16.80468 c 4.00782,0 7.24219,3.24609 7.24219,7.24218 z m 0,0"
     id="path38"
     inkscape:connector-curvature="0"
     style="fill:#0077f0" />
  <path
     d="m 478.41406,395.27734 v 36.41407 c 0,3.99609 -3.23437,7.24609 -7.24219,7.24609 h -16.80468 c 4.00781,0 7.24218,-3.25 7.24218,-7.24609 v -36.41407 c 0,-4.00781 -3.23437,-7.24609 -7.24218,-7.24609 h 16.80468 c 4.00782,0 7.24219,3.23828 7.24219,7.24609 z m 0,0"
     id="path40"
     inkscape:connector-curvature="0"
     style="fill:#0077f0" />
  <path
     d="m 69.757812,51.25 c 0,8.007812 -6.488281,14.5 -14.496093,14.5 -8.007813,0 -14.496094,-6.492188 -14.496094,-14.5 0,-8.003906 6.488281,-14.496094 14.496094,-14.496094 8.007812,0 14.496093,6.492188 14.496093,14.496094 z m 0,0"
     id="path42"
     inkscape:connector-curvature="0"
     style="fill:#ff6b81" />
  <path
     d="m 125.74609,51.25 c 0,8.007812 -6.49218,14.5 -14.49609,14.5 -8.00781,0 -14.5,-6.492188 -14.5,-14.5 0,-8.003906 6.49219,-14.496094 14.5,-14.496094 8.00391,0 14.49609,6.492188 14.49609,14.496094 z m 0,0"
     id="path44"
     inkscape:connector-curvature="0"
     style="fill:#ffd86e" />
  <path
     d="m 181.73047,51.25 c 0,8.007812 -6.48828,14.5 -14.4961,14.5 -8.0039,0 -14.49609,-6.492188 -14.49609,-14.5 0,-8.003906 6.49219,-14.496094 14.49609,-14.496094 8.00782,0 14.4961,6.492188 14.4961,14.496094 z m 0,0"
     id="path46"
     inkscape:connector-curvature="0"
     style="fill:#80e0dc" />
  <path
     d="m 69.753906,51.257812 c 0,8 -6.484375,14.484376 -14.488281,14.484376 -3.875,0 -7.402344,-1.519532 -10,-4.003907 7.84375,-0.171875 14.15625,-6.585937 14.15625,-14.476562 0,-4.136719 -1.726563,-7.855469 -4.496094,-10.492188 0.113281,-0.01172 0.230469,-0.01172 0.339844,-0.01172 8.003906,0 14.488281,6.484376 14.488281,14.5 z m 0,0"
     id="path48"
     inkscape:connector-curvature="0"
     style="fill:#ff435f" />
  <path
     d="m 125.74219,51.257812 c 0,8 -6.48438,14.484376 -14.4961,14.484376 -3.875,0 -7.39453,-1.519532 -10,-4.003907 7.85157,-0.171875 14.16797,-6.585937 14.16797,-14.476562 0,-4.136719 -1.73047,-7.855469 -4.49609,-10.492188 0.10937,-0.01172 0.21875,-0.01172 0.32812,-0.01172 8.01172,0 14.4961,6.484376 14.4961,14.5 z m 0,0"
     id="path50"
     inkscape:connector-curvature="0"
     style="fill:#ffb509" />
  <path
     d="m 181.73437,51.257812 c 0,8 -6.49609,14.484376 -14.5,14.484376 -3.875,0 -7.39062,-1.519532 -10,-4.003907 7.85547,-0.171875 14.15625,-6.585937 14.15625,-14.476562 0,-4.136719 -1.72656,-7.855469 -4.49609,-10.492188 0.11328,-0.01172 0.23047,-0.01172 0.33984,-0.01172 8.00391,0 14.5,6.484376 14.5,14.5 z m 0,0"
     id="path52"
     inkscape:connector-curvature="0"
     style="fill:#00a8b0" />
  <path
     d="m 58.960938,187.04687 c 1.460937,1.46094 3.378906,2.19532 5.296874,2.19532 1.917969,0 3.835938,-0.73047 5.300782,-2.19532 2.925781,-2.92578 2.925781,-7.67187 0,-10.59765 L 51.363281,158.25391 69.558594,140.0625 c 2.925781,-2.92969 2.925781,-7.67188 0,-10.59766 -2.925782,-2.92578 -7.671875,-2.92578 -10.597656,0 L 35.46875,152.95703 c -1.40625,1.40625 -2.195312,3.3125 -2.195312,5.29688 0,1.98828 0.789062,3.89453 2.195312,5.30078 z m 0,0"
     id="path54"
     inkscape:connector-curvature="0" />
  <path
     d="M 133.32031,158.25391 115.125,176.44922 c -2.92578,2.92578 -2.92578,7.67187 0.004,10.59765 1.46093,1.46094 3.3789,2.19532 5.29687,2.19532 1.91797,0 3.83594,-0.73438 5.29688,-2.19532 l 23.49609,-23.49609 c 2.92578,-2.92578 2.92578,-7.67187 0,-10.59375 l -23.49609,-23.49609 c -2.92578,-2.92578 -7.66797,-2.92578 -10.59375,0 -2.92969,2.92968 -2.92969,7.67187 0,10.59765 z m 0,0"
     id="path56"
     inkscape:connector-curvature="0" />
  <path
     d="m 81.171875,188.72266 c 0.898437,0.35156 1.828125,0.51953 2.738281,0.51953 2.992188,0 5.816406,-1.80469 6.976563,-4.75391 L 109.34375,137.5 c 1.51563,-3.85156 -0.38281,-8.19922 -4.23437,-9.71484 -3.84766,-1.51172 -8.199224,0.38281 -9.710942,4.23437 L 76.9375,179.00781 c -1.511719,3.85156 0.382812,8.20313 4.234375,9.71485 z m 0,0"
     id="path58"
     inkscape:connector-curvature="0" />
  <path
     d="m 45.007812,233.20312 h 50.480469 c 4.136719,0 7.492189,-3.35546 7.492189,-7.49609 0,-4.13672 -3.35547,-7.49219 -7.492189,-7.49219 H 45.007812 c -4.140624,0 -7.492187,3.35547 -7.492187,7.49219 0,4.14063 3.351563,7.49609 7.492187,7.49609 z m 0,0"
     id="path60"
     inkscape:connector-curvature="0" />
  <path
     d="m 211.75391,218.21484 h -88.75 c -4.13672,0 -7.49219,3.35547 -7.49219,7.49219 0,4.14063 3.35547,7.49609 7.49219,7.49609 h 88.75 c 4.14062,0 7.49609,-3.35546 7.49609,-7.49609 0,-4.13672 -3.35547,-7.49219 -7.49609,-7.49219 z m 0,0"
     id="path62"
     inkscape:connector-curvature="0" />
  <path
     d="m 45.007812,264.80859 h 21.503907 c 4.136719,0 7.492187,-3.35547 7.492187,-7.49609 0,-4.13672 -3.355468,-7.49219 -7.492187,-7.49219 H 45.007812 c -4.140624,0 -7.492187,3.35547 -7.492187,7.49219 0,4.14062 3.351563,7.49609 7.492187,7.49609 z m 0,0"
     id="path64"
     inkscape:connector-curvature="0" />
  <path
     d="m 184.33984,249.82031 c -4.14062,0 -7.49218,3.35547 -7.49218,7.49219 0,4.14062 3.35156,7.49609 7.49218,7.49609 h 13.09375 c 4.14063,0 7.4961,-3.35547 7.4961,-7.49609 0,-4.13672 -3.35547,-7.49219 -7.4961,-7.49219 z m 0,0"
     id="path66"
     inkscape:connector-curvature="0" />
  <path
     d="m 164.61719,257.3125 c 0,-4.13672 -3.35547,-7.49219 -7.49219,-7.49219 H 92.804688 c -4.140626,0 -7.492188,3.35547 -7.492188,7.49219 0,4.14062 3.351562,7.49609 7.492188,7.49609 H 157.125 c 4.13672,0 7.49219,-3.35547 7.49219,-7.49609 z m 0,0"
     id="path68"
     inkscape:connector-curvature="0" />
  <path
     d="m 213.70312,257.3125 c 0,4.14062 3.35547,7.49609 7.49219,7.49609 h 24.52735 c 4.14062,0 7.49609,-3.35547 7.49609,-7.49609 0,-4.13672 -3.35547,-7.49219 -7.49609,-7.49219 h -24.52735 c -4.13672,0 -7.49219,3.35547 -7.49219,7.49219 z m 0,0"
     id="path70"
     inkscape:connector-curvature="0" />
  <path
     d="m 172.89453,164.26562 h 25.87109 c 4.14063,0 7.4961,-3.35546 7.4961,-7.49609 0,-4.13672 -3.35547,-7.49219 -7.4961,-7.49219 h -25.87109 c -4.14062,0 -7.49609,3.35547 -7.49609,7.49219 0,4.14063 3.35547,7.49609 7.49609,7.49609 z m 0,0"
     id="path72"
     inkscape:connector-curvature="0" />
  <path
     d="m 227.74219,164.26562 h 157.85547 c 4.14062,0 7.49218,-3.35546 7.49218,-7.49609 0,-4.13672 -3.35156,-7.49219 -7.49218,-7.49219 H 227.74219 c -4.14063,0 -7.4961,3.35547 -7.4961,7.49219 0,4.14063 3.35547,7.49609 7.4961,7.49609 z m 0,0"
     id="path74"
     inkscape:connector-curvature="0" />
  <path
     d="m 361.62109,182.24609 h -63.94531 c -4.13672,0 -7.49219,3.35547 -7.49219,7.4961 0,4.13672 3.35547,7.49218 7.49219,7.49218 h 63.94531 c 4.13672,0 7.49219,-3.35546 7.49219,-7.49218 0,-4.14063 -3.35547,-7.4961 -7.49219,-7.4961 z m 0,0"
     id="path76"
     inkscape:connector-curvature="0" />
  <path
     d="m 273.69922,182.24609 h -21.98047 c -4.14062,0 -7.49219,3.35547 -7.49219,7.4961 0,4.13672 3.35157,7.49218 7.49219,7.49218 h 21.98047 c 4.14062,0 7.49219,-3.35546 7.49219,-7.49218 0,-4.14063 -3.35157,-7.4961 -7.49219,-7.4961 z m 0,0"
     id="path78"
     inkscape:connector-curvature="0" />
  <path
     d="m 172.89453,197.23437 h 53.84766 c 4.13672,0 7.49218,-3.35546 7.49218,-7.49218 0,-4.14063 -3.35546,-7.4961 -7.49218,-7.4961 h -53.84766 c -4.14062,0 -7.49609,3.35547 -7.49609,7.4961 0,4.13672 3.35547,7.49218 7.49609,7.49218 z m 0,0"
     id="path80"
     inkscape:connector-curvature="0" />
  <path
     d="m 157.21875,281.16016 h -50.47656 c -4.14063,0 -7.496096,3.35546 -7.496096,7.49218 0,4.13672 3.355466,7.49219 7.496096,7.49219 h 50.47656 c 4.13672,0 7.49219,-3.35547 7.49219,-7.49219 0,-4.13672 -3.35547,-7.49218 -7.49219,-7.49218 z m 0,0"
     id="path82"
     inkscape:connector-curvature="0" />
  <path
     d="m 83.789062,281.16016 h -38.78125 c -4.140624,0 -7.492187,3.35546 -7.492187,7.49218 0,4.13672 3.351563,7.49219 7.492187,7.49219 h 38.78125 c 4.140626,0 7.492188,-3.35547 7.492188,-7.49219 0,-4.13672 -3.351562,-7.49218 -7.492188,-7.49218 z m 0,0"
     id="path84"
     inkscape:connector-curvature="0" />
  <path
     d="m 248.72266,281.16016 h -65.94141 c -4.14063,0 -7.49219,3.35546 -7.49219,7.49218 0,4.13672 3.35156,7.49219 7.49219,7.49219 h 65.94141 c 4.13671,0 7.49218,-3.35547 7.49218,-7.49219 0,-4.13672 -3.35546,-7.49218 -7.49218,-7.49218 z m 0,0"
     id="path86"
     inkscape:connector-curvature="0" />
  <path
     d="m 337.89844,242.66797 h -36.0586 c -4.13672,0 -7.49218,3.35547 -7.49218,7.49219 0,4.14062 3.35546,7.49609 7.49218,7.49609 h 36.0586 c 4.14062,0 7.49218,-3.35547 7.49218,-7.49609 0,-4.13672 -3.35156,-7.49219 -7.49218,-7.49219 z m 0,0"
     id="path88"
     inkscape:connector-curvature="0" />
  <path
     d="m 400.46875,257.65625 h 50.90234 c 4.14063,0 7.4961,-3.35547 7.4961,-7.49609 0,-4.13672 -3.35547,-7.49219 -7.4961,-7.49219 h -50.90234 c -4.14063,0 -7.49219,3.35547 -7.49219,7.49219 0,4.14062 3.35547,7.49609 7.49219,7.49609 z m 0,0"
     id="path90"
     inkscape:connector-curvature="0" />
  <path
     d="m 375.01562,242.66797 h -11.66406 c -4.14062,0 -7.49609,3.35547 -7.49609,7.49219 0,4.14062 3.35547,7.49609 7.49609,7.49609 h 11.66406 c 4.14063,0 7.49219,-3.35547 7.49219,-7.49609 0,-4.13672 -3.35156,-7.49219 -7.49219,-7.49219 z m 0,0"
     id="path92"
     inkscape:connector-curvature="0" />
  <path
     d="m 301.83984,339.3125 h 36.0586 c 4.14062,0 7.49219,-3.35156 7.49219,-7.49219 0,-4.13672 -3.35157,-7.49219 -7.49219,-7.49219 h -36.0586 c -4.13671,0 -7.49218,3.35547 -7.49218,7.49219 0,4.14063 3.35547,7.49219 7.49218,7.49219 z m 0,0"
     id="path94"
     inkscape:connector-curvature="0" />
  <path
     d="m 400.46875,339.3125 h 50.90234 c 4.14063,0 7.4961,-3.35156 7.4961,-7.49219 0,-4.13672 -3.35547,-7.49219 -7.4961,-7.49219 h -50.90234 c -4.14063,0 -7.49219,3.35547 -7.49219,7.49219 0,4.14063 3.35547,7.49219 7.49219,7.49219 z m 0,0"
     id="path96"
     inkscape:connector-curvature="0" />
  <path
     d="m 363.35156,339.3125 h 11.66406 c 4.14063,0 7.4961,-3.35156 7.4961,-7.49219 0,-4.13672 -3.35547,-7.49219 -7.4961,-7.49219 h -11.66406 c -4.14062,0 -7.49219,3.35547 -7.49219,7.49219 0,4.14063 3.35157,7.49219 7.49219,7.49219 z m 0,0"
     id="path98"
     inkscape:connector-curvature="0" />
  <path
     d="m 337.89844,405.98828 h -36.0586 c -4.13672,0 -7.49218,3.35547 -7.49218,7.49219 0,4.13672 3.35546,7.49219 7.49218,7.49219 h 36.0586 c 4.14062,0 7.49218,-3.35547 7.49218,-7.49219 0,-4.13672 -3.35156,-7.49219 -7.49218,-7.49219 z m 0,0"
     id="path100"
     inkscape:connector-curvature="0" />
  <path
     d="m 451.37109,405.98828 h -50.90234 c -4.14063,0 -7.49219,3.35547 -7.49219,7.49219 0,4.13672 3.35156,7.49219 7.49219,7.49219 h 50.90234 c 4.14063,0 7.4961,-3.35547 7.4961,-7.49219 0,-4.13672 -3.35547,-7.49219 -7.4961,-7.49219 z m 0,0"
     id="path102"
     inkscape:connector-curvature="0" />
  <path
     d="m 375.01562,405.98828 h -11.66406 c -4.14062,0 -7.49609,3.35547 -7.49609,7.49219 0,4.13672 3.35547,7.49219 7.49609,7.49219 h 11.66406 c 4.14063,0 7.49219,-3.35547 7.49219,-7.49219 0,-4.13672 -3.35156,-7.49219 -7.49219,-7.49219 z m 0,0"
     id="path104"
     inkscape:connector-curvature="0" />
  <path
     d="M 479.02344,0.5 H 32.980469 C 14.796875,0.5 0,15.292969 0,33.480469 V 396.04687 c 0,18.1836 14.796875,32.97657 32.980469,32.97657 h 28.199219 c 4.136718,0 7.492187,-3.35157 7.492187,-7.49219 0,-4.13672 -3.355469,-7.49219 -7.492187,-7.49219 H 32.980469 c -9.921875,0 -17.992188,-8.07031 -17.992188,-17.99219 V 367.62109 H 287.98437 v 12.91407 h -5.9414 c -8.12891,0 -14.73828,6.60937 -14.73828,14.73828 v 18.76562 H 106.73828 c -4.13672,0 -7.492186,3.35547 -7.492186,7.49219 0,4.14062 3.355466,7.49219 7.492186,7.49219 h 72.04688 v 26.875 h -22.625 c -15.09375,0 -27.3711,12.28125 -27.3711,27.37109 v 16.1875 c 0,6.88672 5.60157,12.48828 12.48828,12.48828 h 228.875 c 6.88672,0 12.48829,-5.60156 12.48829,-12.48828 v -16.1875 c 0,-15.08984 -12.27735,-27.37109 -27.3711,-27.37109 h -22.625 v -9.47266 h 138.52735 c 8.125,0 14.73437,-6.60937 14.73437,-14.73828 v -3.52734 c 14.60547,-3.39063 25.52344,-16.4961 25.52344,-32.11329 l 0.5664,-362.570308 C 512,15.292969 497.20703,0.5 479.02344,0.5 Z M 282.29297,349.78125 v -35.91797 h 188.6289 v 35.91797 z M 302.96875,298.875 V 283.10937 H 450.24219 V 298.875 Z m 147.27344,65.89062 v 15.76954 H 302.96875 v -15.76954 z m -256.47266,64.25782 h 73.53516 v 2.66797 c 0,8.125 6.60937,14.73437 14.73828,14.73437 h 35.61719 v 9.47266 H 193.76953 Z m 161.50391,41.86328 c 6.82812,0 12.38281,5.55469 12.38281,12.38281 v 13.69141 H 143.77344 v -13.69141 c 0,-6.82812 5.55859,-12.38281 12.38672,-12.38281 z M 470.92187,431.4375 h -188.6289 v -35.91406 h 188.6289 z m 25.52344,-35.39063 c 0,7.25782 -4.32812,13.51172 -10.53515,16.35157 v -17.12891 c 0,-8.125 -6.61329,-14.73437 -14.73829,-14.73437 h -5.9414 v -12.91407 h 31.21484 z m 0,-43.41015 h -10.78125 c 0.15235,-0.84766 0.2461,-39.02344 0.2461,-39.02344 0,-8.12891 -6.61329,-14.73828 -14.73829,-14.73828 h -5.9414 v -15.76563 h 5.9414 c 8.125,0 14.73829,-6.61328 14.73829,-14.73828 v -36.41797 c 0,-8.125 -6.61328,-14.73828 -14.73829,-14.73828 h -42.32421 c -4.14063,0 -7.49219,3.35547 -7.49219,7.4961 0,4.13672 3.35156,7.49218 7.49219,7.49218 h 42.07421 v 35.91797 h -188.6289 v -35.91797 h 99.92969 c 4.14062,0 7.49218,-3.35546 7.49218,-7.49218 0,-4.14063 -3.35156,-7.4961 -7.49218,-7.4961 H 282.04297 c -8.12891,0 -14.73828,6.61328 -14.73828,14.73828 v 36.41797 c 0,8.125 6.60937,14.73828 14.73828,14.73828 h 5.9414 V 298.875 h -5.9414 c -8.12891,0 -14.73828,6.61328 -14.73828,14.73828 0,0 0.0937,38.17578 0.24609,39.02344 H 14.988281 V 102.42969 H 496.44531 Z m 0,-265.195314 H 15.539062 V 33.476562 c 0,-9.917968 8.070313,-17.988281 17.992188,-17.988281 h 444.92187 c 9.92188,0 17.99219,8.070313 17.99219,17.992188 z m 0,0"
     id="path106"
     inkscape:connector-curvature="0" />
  <path
     d="m 55.261719,29.261719 c -12.125,0 -21.988281,9.863281 -21.988281,21.988281 0,12.125 9.863281,21.992188 21.988281,21.992188 12.125,0 21.992187,-9.867188 21.992187,-21.992188 0,-12.125 -9.867187,-21.988281 -21.992187,-21.988281 z m 0,28.992187 c -3.859375,0 -7.003907,-3.140625 -7.003907,-7.003906 0,-3.859375 3.144532,-7.003906 7.003907,-7.003906 3.863281,0 7.003906,3.144531 7.003906,7.003906 0,3.863281 -3.140625,7.003906 -7.003906,7.003906 z m 0,0"
     id="path108"
     inkscape:connector-curvature="0" />
  <path
     d="m 111.25,29.261719 c -12.125,0 -21.992188,9.863281 -21.992188,21.988281 0,12.125 9.867188,21.992188 21.992188,21.992188 12.125,0 21.98828,-9.867188 21.98828,-21.992188 0,-12.125 -9.86719,-21.988281 -21.98828,-21.988281 z m 0,28.992187 c -3.86328,0 -7.00391,-3.140625 -7.00391,-7.003906 0,-3.859375 3.14063,-7.003906 7.00391,-7.003906 3.85938,0 7.00391,3.144531 7.00391,7.003906 0,3.863281 -3.14453,7.003906 -7.00391,7.003906 z m 0,0"
     id="path110"
     inkscape:connector-curvature="0" />
  <path
     d="m 167.23437,29.261719 c -12.125,0 -21.98828,9.863281 -21.98828,21.988281 0,12.125 9.86328,21.992188 21.98828,21.992188 12.125,0 21.99219,-9.867188 21.99219,-21.992188 0,-12.125 -9.86719,-21.988281 -21.99219,-21.988281 z m 0,28.992187 c -3.85937,0 -7.0039,-3.140625 -7.0039,-7.003906 0,-3.859375 3.14453,-7.003906 7.0039,-7.003906 3.86329,0 7.00391,3.144531 7.00391,7.003906 0,3.863281 -3.14062,7.003906 -7.00391,7.003906 z m 0,0"
     id="path112"
     inkscape:connector-curvature="0" />
  <path
     style="fill:#ffff00;stroke-width:1.44350278"
     d="M 21.066496,303.29451 V 138.01343 H 324.92384 628.78119 v 75.7839 75.7839 h -31.53334 c -33.72162,0 -34.10907,0.0798 -36.76834,7.57839 -0.79553,2.24325 -3.16396,2.52613 -21.1502,2.52613 -17.04152,0 -20.25434,-0.34347 -20.25434,-2.16525 0,-1.19089 -1.29915,-3.46441 -2.887,-5.05226 -2.80978,-2.80978 -4.80794,-2.88687 -74.70128,-2.88161 -93.50366,0.007 -86.24929,-3.69587 -86.24929,44.02478 0,26.90915 0.30211,30.90091 2.60456,34.41366 3.80872,5.81078 10.89322,9.59821 17.96536,9.60443 l 6.13488,0.005 v 10.10452 10.10452 h -5.09862 c -7.4049,0 -14.18747,3.31156 -18.14371,8.85858 -3.38224,4.74222 -3.46033,5.51525 -3.37033,33.36388 l 0.0921,28.50918 H 188.24409 21.066496 Z m 97.704284,88.5238 c 4.14328,-3.89242 4.348,-10.28931 0.45391,-14.18341 -2.70519,-2.70518 -4.81168,-2.887 -33.44778,-2.887 -34.663548,0 -35.840357,0.33643 -35.840357,10.24638 0,9.4162 1.972133,9.96266 35.954847,9.96266 28.34113,0 29.67388,-0.12718 32.87938,-3.13863 z m 98.50733,-0.6648 c 1.64548,-2.09188 2.99178,-4.92737 2.99178,-6.30109 0,-1.37373 -1.3463,-4.20921 -2.99178,-6.3011 l -2.99177,-3.80342 h -38.64608 c -36.79345,0 -38.77115,0.13814 -41.25486,2.88266 -3.2372,3.57707 -3.17292,10.93768 0.12737,14.58446 2.31992,2.56348 4.9963,2.74192 41.12749,2.74192 h 38.64608 z m 121.30277,0.64423 c 3.74691,-4.02183 3.77242,-10.44666 0.0563,-14.16284 -2.77268,-2.77268 -4.81168,-2.887 -51.49157,-2.887 -54.70375,0 -53.8842,-0.15584 -53.8842,10.24638 0,9.95323 0.0514,9.96266 54.39631,9.96266 47.49898,0 48.00943,-0.0316 50.92316,-3.1592 z M 96.128643,350.20835 c 3.711718,-3.71172 3.711718,-10.72331 0,-14.43503 -2.585747,-2.58575 -4.811676,-2.88701 -21.331354,-2.88701 -21.661633,0 -24.860736,1.24973 -24.860736,9.71183 0,9.53329 2.207647,10.49721 24.041522,10.49721 17.338892,0 19.55201,-0.28844 22.150568,-2.887 z m 120.549347,-0.0186 c 3.37139,-3.72534 3.37139,-10.67243 0,-14.39776 -2.53351,-2.79951 -4.36147,-2.90566 -50.04144,-2.90566 -45.48719,0 -47.52906,0.1172 -50.29887,2.88701 -3.52985,3.52986 -3.78494,11.05023 -0.49802,14.68224 2.22299,2.45638 5.71778,2.63979 50.29887,2.63979 46.17904,0 48.0049,-0.10494 50.53946,-2.90564 z m 54.00973,-0.89779 c 1.64547,-2.09189 2.99177,-4.92738 2.99177,-6.30111 0,-1.37372 -1.3463,-4.20921 -2.99177,-6.30109 -2.84103,-3.61179 -3.65458,-3.80343 -16.14638,-3.80343 -11.51942,0 -13.56988,0.39014 -16.49551,3.13863 -4.14329,3.89242 -4.348,10.28931 -0.45391,14.18341 2.4787,2.47869 4.81167,2.887 16.49551,2.887 12.98217,0 13.74621,-0.17505 16.60029,-3.80342 z m 63.61889,0.91641 c 1.60389,-1.60389 2.887,-4.81167 2.887,-7.21752 0,-2.40584 -1.28311,-5.61362 -2.887,-7.21751 -2.62082,-2.62082 -4.81167,-2.88701 -23.76156,-2.88701 -19.61518,0 -21.05213,0.1906 -23.8178,3.1592 -3.74691,4.02183 -3.77242,10.44666 -0.0563,14.16284 2.62153,2.62153 4.81167,2.887 23.81779,2.887 19.00613,0 21.19627,-0.26547 23.8178,-2.887 z M 134.99845,307.43034 c 1.64548,-2.09188 2.99177,-4.92736 2.99177,-6.30109 0,-1.37372 -1.34629,-4.20921 -2.99177,-6.30109 l -2.99178,-3.80343 H 93.611406 c -43.353069,0 -43.674853,0.0755 -43.674853,10.24639 0,9.70968 1.123445,9.96265 44.243254,9.96265 h 37.826863 z m 154.4548,0 c 3.77667,-4.80124 3.81547,-9.8079 0.1048,-13.5186 -2.80021,-2.80021 -4.81167,-2.88701 -66.89915,-2.88701 -62.14678,0 -64.08818,0.084 -66.62093,2.88266 -3.57606,3.95151 -3.1678,11.58326 0.79113,14.78901 2.88302,2.33455 8.18934,2.53737 66.38293,2.53737 h 63.24945 z m 19.65767,-47.3753 c 3.95978,-3.95979 4.31619,-6.1724 1.86188,-11.55901 -2.73965,-6.01289 -8.67929,-6.78351 -48.44294,-6.28506 -35.19211,0.44114 -36.51628,0.56185 -39.55792,3.60599 -4.14501,4.1484 -4.01566,11.78303 0.25827,15.24384 2.81942,2.28303 7.10323,2.53738 42.73555,2.53738 h 39.60202 z m 62.27285,0.40451 c 4.07719,-3.83033 4.31813,-9.76884 0.58358,-14.38436 -2.51224,-3.10487 -4.06235,-3.45223 -17.43802,-3.90757 -8.07437,-0.27487 -16.93823,-0.0762 -19.69746,0.44139 -9.93264,1.86338 -13.45552,9.78997 -7.63801,17.18574 2.96033,3.76343 3.19082,3.80343 21.92039,3.80343 17.44775,0 19.18998,-0.24555 22.26952,-3.13863 z m 116.92373,0 c 4.07797,-3.83106 4.31804,-9.76987 0.58144,-14.38436 l -2.75945,-3.4078 h -46.88984 c -44.08458,0 -47.07162,0.16451 -49.92838,2.74985 -2.07043,1.87371 -3.03856,4.49218 -3.03856,8.21829 0,9.91568 0.24775,9.96265 52.55514,9.96265 45.38501,0 46.19332,-0.0513 49.47965,-3.13863 z M 93.602513,248.94168 c 4.959961,-5.86166 3.349199,-9.43264 -10.731318,-23.79077 L 69.613748,211.63208 82.871195,198.11324 c 10.384733,-10.58948 13.257448,-14.40097 13.257448,-17.58987 0,-5.55842 -5.167434,-10.75287 -10.696948,-10.75287 -3.734752,0 -7.275048,2.84902 -22.844422,18.38383 -24.272155,24.21828 -24.213014,22.37965 -1.463574,45.50064 9.328637,9.48099 18.260311,17.7961 19.848164,18.47802 4.054896,1.7414 9.653756,0.32677 12.63065,-3.19131 z m 23.759927,2.3732 c 3.47319,-2.43271 29.2888,-66.08396 29.2888,-72.21477 0,-7.93094 -12.43109,-12.7179 -17.66771,-6.80348 -1.23015,1.38937 -8.12935,17.59503 -15.33156,36.01258 -11.51094,29.43588 -12.91702,33.99677 -11.62421,37.70534 2.33806,6.70696 9.69566,9.25006 15.33468,5.30033 z m 66.459,-17.12335 c 23.57161,-23.63806 23.60206,-21.63924 -0.70092,-45.9963 -15.88061,-15.91594 -19.01121,-18.42473 -22.99128,-18.42473 -3.25818,0 -5.48356,1.1138 -7.59922,3.80342 -5.28928,6.72423 -4.06095,9.65597 10.23861,24.43727 l 13.23037,13.6761 -13.23037,13.49123 c -8.58235,8.75155 -13.23038,14.60713 -13.23038,16.66757 0,7.29698 5.92218,12.22128 12.99152,10.80247 2.11484,-0.42445 10.92901,-8.06516 21.29167,-18.45703 z m 88.5454,-18.02799 c 3.74888,-4.63523 3.46203,-9.73083 -0.787,-13.97985 -3.42352,-3.42353 -4.22357,-3.54314 -23.69973,-3.54314 -11.08612,0 -21.25631,0.42201 -22.60042,0.93779 -3.743,1.43632 -6.38084,8.94381 -4.76806,13.57022 2.16533,6.21147 5.85425,7.0871 28.39829,6.74078 19.82826,-0.30459 20.81693,-0.46163 23.45692,-3.7258 z m 247.23521,1.13778 c 2.75858,-2.16989 3.80343,-4.32214 3.80343,-7.8345 0,-3.51235 -1.04485,-5.6646 -3.80343,-7.83449 -3.77093,-2.96623 -4.72692,-2.99178 -111.93707,-2.99178 H 299.53131 l -3.54313,3.54314 c -5.45071,5.45071 -4.08351,13.92829 2.6861,16.65583 1.73444,0.69882 51.29695,1.31175 110.13893,1.36208 106.11767,0.0907 107.01626,0.0672 110.78884,-2.90028 z"
     id="path130"
     inkscape:connector-curvature="0"
     transform="matrix(0.7514648,0,0,0.7514648,0,-0.499)" />
  <g
     transform="matrix(0.54032231,0,0,0.54032231,30.165254,118.23064)"
     id="svgg">
    <path
       id="path0"
       d="m 186.6,76.444 c -11.04,1.462 -25.09,4.839 -31.2,7.501 -0.765,0.333 -1.945,0.824 -3.9,1.623 -1.965,0.803 -11.384,5.439 -12.7,6.251 -5.892,3.636 -8.648,5.424 -11.6,7.525 -1.87,1.33 -3.49,2.523 -3.6,2.651 -0.11,0.128 -0.74,0.647 -1.4,1.153 -5.465,4.193 -14.859,13.587 -19.052,19.052 -0.506,0.66 -1.025,1.29 -1.153,1.4 -0.128,0.11 -1.321,1.73 -2.651,3.6 -2.101,2.952 -3.889,5.708 -7.525,11.6 -0.475,0.77 -1.993,3.74 -3.373,6.6 -2.451,5.077 -2.991,6.258 -3.7,8.1 -0.19,0.495 -0.526,1.305 -0.746,1.8 -3.394,7.645 -7.002,23.968 -7.803,35.3 l -0.226,3.2 1.541,-4.2 c 12.464,-33.955 37.84,-62.142 65.588,-72.853 0.495,-0.191 1.305,-0.517 1.8,-0.726 4.492,-1.889 12.618,-4.101 20.5,-5.581 40.195,-7.547 86.629,16.198 101.998,52.16 0.376,0.88 0.836,1.96 1.023,2.4 4.588,10.826 5.918,28.272 3.124,41 -0.73,3.322 -2.264,8.518 -3.13,10.6 -1.957,4.701 -3.319,7.469 -5.585,11.349 -14.552,24.917 -43.744,36.379 -67.43,26.476 -25.901,-10.828 -36.305,-34.43 -25.027,-56.772 5.844,-11.576 20.68,-19.264 31.067,-16.1 0.638,0.195 1.97,0.592 2.96,0.884 6.743,1.988 13.07,7.971 15.16,14.337 4.978,15.163 -11.195,29.202 -22.527,19.553 -3.984,-3.393 -4.514,-11.023 -0.922,-13.288 1.307,-0.825 3.298,1.725 2.681,3.432 -1.939,5.363 7.008,7.426 9.66,2.228 4.922,-9.65 -9.855,-16.863 -17.262,-8.426 -8.349,9.508 -3.55,23.167 9.81,27.925 28.746,10.238 48.599,-34.388 25.463,-57.234 -22.72,-22.436 -58.267,-22.516 -80.463,-0.183 -11.414,11.485 -20.125,27.441 -23.267,42.619 -0.227,1.1 -0.57,2.72 -0.76,3.6 -3.902,18.01 0.409,43.215 10.16,59.4 0.862,1.43 1.922,3.23 2.356,4 0.434,0.77 1.104,1.76 1.49,2.2 0.386,0.44 1.298,1.7 2.028,2.8 8.173,12.316 40.814,37.557 49.496,38.276 l 1.497,0.124 0.203,37.6 0.203,37.6 0.097,-36.5 c 0.053,-20.075 0.17,-36.5 0.259,-36.5 0.128,0 17.03,17.01 19.938,20.065 0.65,0.682 0.707,2.603 0.797,26.835 0.095,25.618 0.101,25.406 0.3,-11.5 l 0.203,-37.6 2.4,-0.318 c 18.371,-2.431 34.937,-7.731 47.2,-15.099 1.1,-0.66 2.27,-1.319 2.6,-1.464 11.86,-5.185 38.534,-31.859 43.719,-43.719 0.145,-0.33 0.804,-1.5 1.464,-2.6 6.518,-10.847 12.079,-27.115 14.358,-42 4.085,-26.677 -1.36,-56.958 -14.205,-79 -0.577,-0.99 -1.404,-2.43 -1.838,-3.2 -5.877,-10.424 -17.544,-23.974 -27.898,-32.399 -1.21,-0.984 -2.29,-1.891 -2.4,-2.014 -0.11,-0.123 -1.73,-1.313 -3.6,-2.643 -2.952,-2.101 -5.708,-3.889 -11.6,-7.525 -0.77,-0.475 -3.74,-1.993 -6.6,-3.373 -5.077,-2.451 -6.258,-2.991 -8.1,-3.7 -0.495,-0.19 -1.305,-0.526 -1.8,-0.746 -5.508,-2.445 -19.57,-5.979 -28.9,-7.262 -3.846,-0.529 -25.757,-0.749 -29.2,-0.294"
       inkscape:connector-curvature="0"
       style="fill:#eb5586;fill-rule:evenodd;stroke:none" />
    <path
       id="path1"
       d="m 171,109.815 c -6.266,0.621 -6.73,0.701 -14,2.407 -2.824,0.663 -10.349,3.036 -12.2,3.847 -0.55,0.241 -1.36,0.57 -1.8,0.732 -27.488,10.097 -54.571,40.759 -66.245,74.999 -2.947,8.642 0.731,37.841 6.462,51.3 0.354,0.833 0.566,1.354 1.542,3.8 6.925,17.348 21.751,37.74 35.041,48.193 0.88,0.692 2.59,2.05 3.8,3.016 5.256,4.201 16.809,11.403 22.4,13.965 11.39,5.22 21.343,8.412 32.187,10.324 7.505,1.323 7.874,1.158 2.995,-1.337 -14.833,-7.585 -36.321,-25.334 -43.175,-35.661 -0.73,-1.1 -1.642,-2.36 -2.028,-2.8 -0.386,-0.44 -1.056,-1.43 -1.49,-2.2 -0.434,-0.77 -1.494,-2.57 -2.356,-4 -9.751,-16.185 -14.062,-41.39 -10.16,-59.4 0.19,-0.88 0.533,-2.5 0.76,-3.6 4.676,-22.591 20.357,-44.508 38.283,-53.508 35.407,-17.777 81.279,8.026 75.217,42.308 -4.09,23.13 -24.491,34.396 -41.431,22.879 -8.492,-5.774 -10.175,-17.332 -3.612,-24.806 7.407,-8.437 22.184,-1.224 17.262,8.426 -2.652,5.198 -11.599,3.135 -9.66,-2.228 0.617,-1.707 -1.374,-4.257 -2.681,-3.432 -3.592,2.265 -3.062,9.895 0.922,13.288 11.332,9.649 27.505,-4.39 22.527,-19.553 -2.09,-6.366 -8.417,-12.349 -15.16,-14.337 -0.99,-0.292 -2.322,-0.689 -2.96,-0.884 -6.808,-2.074 -16.731,0.816 -24.196,7.047 -3.746,3.127 -8.625,11.33 -10.111,17 -5.288,20.185 5.873,39.463 28.267,48.825 23.686,9.903 52.878,-1.559 67.43,-26.476 2.266,-3.88 3.628,-6.648 5.585,-11.349 5.086,-12.222 6.06,-30.085 2.394,-43.91 -0.876,-3.3 -1.829,-6.371 -2.388,-7.69 -0.187,-0.44 -0.647,-1.52 -1.023,-2.4 C 252.658,128.109 211.854,105.766 171,109.815 M 189.595,362.1 c -0.003,19.855 -0.114,36.505 -0.247,37 l -0.241,0.9 h 10.746 10.747 l -0.111,-26.611 c -0.102,-24.544 -0.165,-26.667 -0.8,-27.335 C 206.833,343.051 189.89,326 189.762,326 c -0.089,0 -0.164,16.245 -0.167,36.1"
       inkscape:connector-curvature="0"
       style="fill:#fbd8b1;fill-rule:evenodd;stroke:none" />
    <path
       id="path2-2"
       d="m 178.7,0.273 c -2.145,0.086 -3.9,0.329 -3.9,0.541 0,0.213 -1.159,0.386 -2.576,0.386 -1.417,0 -2.688,0.18 -2.824,0.4 -0.136,0.22 -1.317,0.4 -2.624,0.4 -1.317,0 -2.376,0.178 -2.376,0.4 0,0.22 -0.889,0.4 -1.976,0.4 -1.087,0 -2.088,0.18 -2.224,0.4 -0.136,0.22 -0.946,0.4 -1.8,0.4 -0.854,0 -1.664,0.18 -1.8,0.4 -0.136,0.22 -0.946,0.4 -1.8,0.4 -0.854,0 -1.664,0.18 -1.8,0.4 -0.136,0.22 -0.856,0.4 -1.6,0.4 -0.744,0 -1.464,0.18 -1.6,0.4 -0.136,0.22 -0.867,0.4 -1.624,0.4 -0.757,0 -1.376,0.18 -1.376,0.4 0,0.22 -0.529,0.4 -1.176,0.4 -0.647,0 -1.288,0.18 -1.424,0.4 -0.136,0.22 -0.766,0.4 -1.4,0.4 -0.634,0 -1.264,0.18 -1.4,0.4 -0.136,0.22 -0.777,0.4 -1.424,0.4 -0.647,0 -1.176,0.142 -1.176,0.315 0,0.173 -0.337,0.34 -0.75,0.371 -0.888,0.067 -6.747,1.982 -7.745,2.531 -0.382,0.211 -1.057,0.383 -1.5,0.383 -0.443,0 -0.805,0.18 -0.805,0.4 0,0.22 -0.343,0.4 -0.762,0.4 -0.419,0 -1.544,0.386 -2.5,0.857 -0.956,0.471 -2.098,0.985 -2.538,1.143 -0.44,0.158 -1.582,0.672 -2.538,1.143 -0.956,0.471 -1.991,0.857 -2.3,0.857 -0.309,0 -0.562,0.18 -0.562,0.4 0,0.22 -0.349,0.4 -0.776,0.4 -0.427,0 -0.888,0.18 -1.024,0.4 -0.136,0.22 -0.582,0.4 -0.99,0.4 -0.409,0 -0.803,0.135 -0.877,0.3 -0.192,0.432 -3.505,2.1 -4.171,2.1 -0.309,0 -0.562,0.18 -0.562,0.4 0,0.22 -0.36,0.4 -0.8,0.4 -0.44,0 -0.8,0.145 -0.8,0.321 0,0.177 -0.897,0.762 -1.994,1.3 -1.096,0.539 -1.996,1.114 -2,1.279 -0.003,0.165 -0.366,0.3 -0.806,0.3 -0.44,0 -0.8,0.18 -0.8,0.4 0,0.22 -0.315,0.413 -0.7,0.428 -0.385,0.016 -1.78,0.739 -3.1,1.607 -1.32,0.868 -2.715,1.686 -3.1,1.818 -0.385,0.132 -0.7,0.377 -0.7,0.545 0,0.168 -0.54,0.529 -1.2,0.802 -0.66,0.273 -1.2,0.655 -1.2,0.849 0,0.193 -0.236,0.351 -0.525,0.351 -0.288,0 -0.911,0.36 -1.383,0.8 -0.472,0.44 -1.096,0.8 -1.387,0.8 -0.291,0 -0.788,0.36 -1.105,0.8 -0.317,0.44 -0.762,0.8 -0.988,0.801 -0.227,0 -1.042,0.54 -1.812,1.199 -0.77,0.659 -1.559,1.199 -1.753,1.199 -0.194,0.001 -0.644,0.316 -1,0.701 -0.822,0.888 -3.921,3.3 -4.242,3.3 -0.133,0 -0.658,0.405 -1.168,0.9 -0.51,0.495 -1.35,1.17 -1.867,1.5 -0.517,0.33 -1.532,1.188 -2.255,1.907 -0.723,0.719 -1.315,1.187 -1.315,1.039 0,-0.148 -0.315,0.075 -0.7,0.494 -0.385,0.42 -1.512,1.414 -2.505,2.21 -0.992,0.796 -3.332,3 -5.2,4.897 -4.131,4.197 -3.651,3.717 -7.848,7.848 -1.897,1.868 -4.101,4.208 -4.897,5.2 -0.796,0.993 -1.79,2.12 -2.21,2.505 -0.419,0.385 -0.62,0.7 -0.447,0.7 0.173,0 -0.294,0.537 -1.039,1.194 -0.745,0.656 -1.213,1.196 -1.04,1.2 0.292,0.006 -0.02,0.392 -2.414,2.992 -0.495,0.538 -0.9,1.086 -0.9,1.219 0,0.321 -2.412,3.42 -3.3,4.242 -0.385,0.356 -0.7,0.806 -0.701,1 0,0.194 -0.54,0.983 -1.199,1.753 -0.659,0.77 -1.199,1.585 -1.199,1.812 C 34.8,86.038 34.44,86.483 34,86.8 c -0.44,0.317 -0.8,0.814 -0.8,1.105 0,0.291 -0.36,0.915 -0.8,1.387 -0.44,0.472 -0.8,1.095 -0.8,1.383 0,0.289 -0.158,0.525 -0.351,0.525 -0.194,0 -0.576,0.54 -0.849,1.2 -0.273,0.66 -0.634,1.2 -0.802,1.2 -0.168,0 -0.413,0.315 -0.545,0.7 -0.132,0.385 -0.95,1.78 -1.818,3.1 -0.868,1.32 -1.591,2.715 -1.607,3.1 -0.015,0.385 -0.208,0.7 -0.428,0.7 -0.22,0 -0.4,0.36 -0.4,0.8 0,0.44 -0.135,0.803 -0.3,0.806 -0.165,0.004 -0.74,0.904 -1.279,2 -0.538,1.097 -1.123,1.994 -1.3,1.994 -0.176,0 -0.321,0.36 -0.321,0.8 0,0.44 -0.18,0.8 -0.4,0.8 -0.22,0 -0.4,0.253 -0.4,0.562 0,0.666 -1.668,3.979 -2.1,4.171 -0.165,0.074 -0.3,0.468 -0.3,0.877 0,0.408 -0.18,0.854 -0.4,0.99 -0.22,0.136 -0.4,0.597 -0.4,1.024 0,0.427 -0.18,0.776 -0.4,0.776 -0.22,0 -0.4,0.253 -0.4,0.562 0,0.309 -0.386,1.344 -0.857,2.3 -0.471,0.956 -0.985,2.098 -1.143,2.538 -0.158,0.44 -0.672,1.582 -1.143,2.538 -0.471,0.956 -0.857,2.081 -0.857,2.5 0,0.419 -0.18,0.762 -0.4,0.762 -0.22,0 -0.4,0.362 -0.4,0.805 0,0.443 -0.172,1.118 -0.383,1.5 -0.549,0.998 -2.464,6.857 -2.531,7.745 -0.031,0.413 -0.198,0.75 -0.371,0.75 -0.173,0 -0.315,0.529 -0.315,1.176 0,0.647 -0.18,1.288 -0.4,1.424 -0.22,0.136 -0.4,0.766 -0.4,1.4 0,0.634 -0.18,1.264 -0.4,1.4 -0.22,0.136 -0.4,0.777 -0.4,1.424 0,0.647 -0.18,1.176 -0.4,1.176 -0.22,0 -0.4,0.619 -0.4,1.376 0,0.757 -0.18,1.488 -0.4,1.624 -0.22,0.136 -0.4,0.856 -0.4,1.6 0,0.744 -0.18,1.464 -0.4,1.6 -0.22,0.136 -0.4,0.946 -0.4,1.8 0,0.854 -0.18,1.664 -0.4,1.8 -0.22,0.136 -0.4,0.946 -0.4,1.8 0,0.854 -0.18,1.664 -0.4,1.8 -0.22,0.136 -0.4,1.137 -0.4,2.224 0,1.087 -0.18,1.976 -0.4,1.976 -0.222,0 -0.4,1.059 -0.4,2.376 0,1.307 -0.18,2.488 -0.4,2.624 -0.22,0.136 -0.4,1.392 -0.4,2.79 0,1.679 -0.17,2.6 -0.5,2.71 -0.732,0.244 -0.732,49.956 0,50.2 0.33,0.11 0.5,1.031 0.5,2.71 0,1.398 0.18,2.654 0.4,2.79 0.22,0.136 0.4,1.317 0.4,2.624 0,1.317 0.178,2.376 0.4,2.376 0.22,0 0.4,0.799 0.4,1.776 0,0.977 0.18,1.888 0.4,2.024 0.22,0.136 0.4,1.036 0.4,2 0,0.964 0.18,1.864 0.4,2 0.22,0.136 0.4,0.946 0.4,1.8 0,0.854 0.18,1.664 0.4,1.8 0.22,0.136 0.4,0.856 0.4,1.6 0,0.744 0.18,1.464 0.4,1.6 0.22,0.136 0.4,0.867 0.4,1.624 0,0.757 0.18,1.376 0.4,1.376 0.22,0 0.4,0.529 0.4,1.176 0,0.647 0.18,1.288 0.4,1.424 0.22,0.136 0.4,0.676 0.4,1.2 0,0.524 0.18,1.064 0.4,1.2 0.22,0.136 0.4,0.706 0.4,1.267 0,1.032 2.482,8.947 3.207,10.228 0.216,0.382 0.393,1.057 0.393,1.5 0,0.443 0.18,0.805 0.4,0.805 0.22,0 0.4,0.272 0.4,0.604 0,0.333 0.378,1.458 0.84,2.5 0.462,1.043 0.976,2.256 1.143,2.696 0.167,0.44 0.689,1.582 1.16,2.538 0.471,0.956 0.857,1.991 0.857,2.3 0,0.309 0.18,0.562 0.4,0.562 0.22,0 0.4,0.36 0.4,0.8 0,0.44 0.18,0.8 0.4,0.8 0.22,0 0.4,0.435 0.4,0.967 0,0.531 0.137,1.026 0.305,1.1 0.168,0.073 1.273,2.068 2.457,4.433 1.183,2.365 2.306,4.3 2.495,4.3 0.188,0 0.343,0.36 0.343,0.8 0,0.44 0.18,0.8 0.4,0.8 0.22,0 0.4,0.36 0.4,0.8 0,0.44 0.18,0.8 0.4,0.8 0.22,0 0.4,0.283 0.4,0.63 0,0.346 0.81,1.882 1.8,3.412 0.99,1.531 1.8,2.957 1.8,3.17 0,0.214 0.18,0.388 0.4,0.388 0.22,0 0.4,0.236 0.4,0.525 0,0.288 0.315,0.873 0.7,1.3 0.385,0.426 0.955,1.27 1.268,1.875 0.312,0.605 0.717,1.1 0.9,1.1 0.182,0 0.332,0.272 0.332,0.604 0,0.332 0.54,1.168 1.2,1.859 0.66,0.691 1.2,1.416 1.2,1.613 0,0.197 0.36,0.744 0.8,1.216 0.44,0.472 0.8,1.095 0.8,1.383 0,0.289 0.155,0.525 0.345,0.525 0.19,0 1.307,1.305 2.483,2.9 1.175,1.595 2.487,3.215 2.916,3.6 0.428,0.385 0.616,0.703 0.417,0.706 -0.198,0.003 -0.176,0.138 0.049,0.3 0.226,0.162 1.007,1.06 1.735,1.995 0.729,0.936 1.894,2.297 2.59,3.023 0.696,0.727 1.715,1.926 2.265,2.665 0.55,0.738 2.503,2.798 4.34,4.577 4.061,3.932 3.562,3.433 7.494,7.494 1.779,1.837 3.839,3.79 4.577,4.34 0.739,0.55 1.938,1.569 2.665,2.265 0.726,0.696 2.087,1.864 3.023,2.594 0.935,0.731 1.92,1.512 2.187,1.735 0.952,0.794 1.549,1.251 4.414,3.37 1.595,1.18 2.9,2.301 2.9,2.491 0,0.19 0.236,0.345 0.525,0.345 0.288,0 0.911,0.36 1.383,0.8 0.472,0.44 1.019,0.8 1.216,0.8 0.197,0 0.922,0.54 1.613,1.2 0.691,0.66 1.445,1.2 1.676,1.2 0.231,0 0.807,0.36 1.279,0.8 0.472,0.44 1.095,0.8 1.383,0.8 0.289,0 0.525,0.18 0.525,0.4 0,0.22 0.27,0.4 0.6,0.4 0.33,0 0.6,0.18 0.6,0.4 0,0.22 0.27,0.4 0.6,0.4 0.33,0 0.6,0.18 0.6,0.4 0,0.22 0.174,0.4 0.388,0.4 0.213,0 1.639,0.81 3.17,1.8 1.53,0.99 3.066,1.8 3.412,1.8 0.347,0 0.63,0.18 0.63,0.4 0,0.22 0.36,0.4 0.8,0.4 0.44,0 0.8,0.18 0.8,0.4 0,0.22 0.36,0.4 0.8,0.4 0.44,0 0.8,0.152 0.8,0.337 0,0.186 0.855,0.771 1.9,1.3 1.045,0.53 1.96,1.098 2.033,1.263 0.074,0.165 0.353,0.3 0.621,0.3 0.709,0 2.639,0.949 2.643,1.3 0.002,0.165 0.363,0.3 0.803,0.3 0.44,0 0.8,0.18 0.8,0.4 0,0.22 0.349,0.4 0.776,0.4 0.427,0 0.888,0.18 1.024,0.4 0.136,0.22 0.597,0.4 1.024,0.4 0.427,0 0.776,0.18 0.776,0.4 0,0.22 0.253,0.4 0.562,0.4 0.485,0 1.758,0.552 4.733,2.05 0.382,0.193 0.967,0.35 1.3,0.35 0.333,0 0.605,0.18 0.605,0.4 0,0.22 0.439,0.4 0.976,0.4 0.537,0 1.088,0.18 1.224,0.4 0.136,0.22 0.597,0.4 1.024,0.4 0.427,0 0.776,0.191 0.776,0.424 0,0.233 0.148,0.332 0.329,0.22 0.18,-0.112 0.765,0.018 1.3,0.288 0.534,0.271 2.051,0.831 3.371,1.246 1.32,0.415 3.39,1.067 4.6,1.448 1.21,0.381 3.01,0.909 4,1.172 0.99,0.264 2.113,0.642 2.495,0.841 0.382,0.199 1.136,0.361 1.676,0.361 0.54,0 1.093,0.18 1.229,0.4 0.136,0.22 0.867,0.4 1.624,0.4 0.757,0 1.376,0.18 1.376,0.4 0,0.22 0.709,0.4 1.576,0.4 0.867,0 1.688,0.18 1.824,0.4 0.136,0.22 0.957,0.4 1.824,0.4 0.867,0 1.576,0.18 1.576,0.4 0,0.22 0.799,0.4 1.776,0.4 0.977,0 1.888,0.18 2.024,0.4 0.136,0.22 1.047,0.4 2.024,0.4 0.977,0 1.776,0.18 1.776,0.4 0,0.222 1.067,0.4 2.4,0.4 1.333,0 2.4,0.178 2.4,0.4 0,0.231 1.256,0.4 2.967,0.4 1.631,0 3.026,0.158 3.1,0.352 0.073,0.193 3.148,0.483 6.833,0.642 l 6.7,0.291 -0.002,-17.542 L 188.796,365 155.821,332.01 c -18.136,-18.144 -32.892,-33.072 -32.791,-33.173 0.101,-0.101 0.396,0.029 0.657,0.29 0.26,0.26 0.662,0.472 0.893,0.47 0.231,-10e-4 -0.109,-0.351 -0.755,-0.777 -0.646,-0.426 -1.326,-0.681 -1.51,-0.567 -0.184,0.113 -0.285,0.058 -0.225,-0.123 0.061,-0.182 -0.005,-0.397 -0.145,-0.479 -6.214,-3.631 -25.467,-25.943 -29.553,-34.251 -0.325,-0.66 -0.681,-1.29 -0.791,-1.4 -0.408,-0.406 -1.648,-2.705 -3.56,-6.6 -2.996,-6.101 -3.809,-8.024 -5.408,-12.8 -0.811,-2.42 -1.645,-4.713 -1.854,-5.095 -0.208,-0.382 -0.379,-1.136 -0.379,-1.676 0,-0.54 -0.18,-1.093 -0.4,-1.229 -0.22,-0.136 -0.4,-0.766 -0.4,-1.4 0,-0.634 -0.161,-1.252 -0.358,-1.374 -0.197,-0.121 -0.467,-0.942 -0.6,-1.823 -0.133,-0.882 -0.351,-2.324 -0.484,-3.206 -0.133,-0.881 -0.403,-1.702 -0.6,-1.823 -0.197,-0.122 -0.358,-1.075 -0.358,-2.118 0,-1.043 -0.165,-2.067 -0.368,-2.276 -0.202,-0.209 -0.465,-1.55 -0.585,-2.98 -0.119,-1.43 -0.432,-5.12 -0.695,-8.2 -0.959,-11.257 -0.073,-24.224 2.427,-35.5 0.231,-1.045 0.587,-2.665 0.791,-3.6 0.203,-0.935 0.563,-2.375 0.8,-3.2 0.236,-0.825 0.595,-2.085 0.797,-2.8 10.948,-38.8 44.841,-72.724 83.833,-83.911 3.481,-0.998 4.548,-1.281 6.1,-1.619 0.935,-0.204 2.555,-0.56 3.6,-0.791 9.648,-2.139 22.053,-3.032 33.2,-2.39 8.461,0.487 12.98,1.055 19,2.39 1.045,0.231 2.665,0.587 3.6,0.791 0.935,0.203 2.33,0.553 3.1,0.777 0.77,0.224 2.03,0.577 2.8,0.783 5.763,1.544 23.588,9.049 24.8,10.441 0.11,0.127 0.74,0.496 1.4,0.82 0.66,0.324 2.497,1.449 4.082,2.499 1.585,1.051 3.07,1.91 3.3,1.91 0.23,0 0.418,0.141 0.418,0.314 0,0.172 0.53,0.626 1.177,1.009 6.218,3.673 17.779,14.159 24.603,22.315 1.731,2.069 3.384,3.853 3.674,3.964 0.687,0.263 99.746,99.252 99.746,99.676 0,0.177 0.153,0.322 0.339,0.322 0.853,0 1.005,-48.019 0.154,-48.302 -0.332,-0.111 -0.493,-1.137 -0.493,-3.131 0,-1.711 -0.169,-2.967 -0.4,-2.967 -0.222,0 -0.4,-1.067 -0.4,-2.4 0,-1.333 -0.178,-2.4 -0.4,-2.4 -0.22,0 -0.4,-0.889 -0.4,-1.976 0,-1.087 -0.18,-2.088 -0.4,-2.224 -0.22,-0.136 -0.4,-0.957 -0.4,-1.824 0,-0.867 -0.18,-1.576 -0.4,-1.576 -0.22,0 -0.4,-0.709 -0.4,-1.576 0,-0.867 -0.18,-1.688 -0.4,-1.824 -0.22,-0.136 -0.4,-0.957 -0.4,-1.824 0,-0.867 -0.18,-1.576 -0.4,-1.576 -0.22,0 -0.4,-0.619 -0.4,-1.376 0,-0.757 -0.18,-1.488 -0.4,-1.624 -0.22,-0.136 -0.4,-0.766 -0.4,-1.4 0,-0.634 -0.18,-1.264 -0.4,-1.4 -0.22,-0.136 -0.4,-0.689 -0.4,-1.229 0,-0.54 -0.156,-1.294 -0.346,-1.676 -0.19,-0.382 -0.751,-2.045 -1.246,-3.695 -1.399,-4.659 -2.158,-6.915 -2.684,-7.971 -0.266,-0.535 -0.392,-1.12 -0.28,-1.3 0.112,-0.181 0.013,-0.329 -0.22,-0.329 -0.233,0 -0.424,-0.349 -0.424,-0.776 0,-0.427 -0.18,-0.888 -0.4,-1.024 -0.22,-0.136 -0.4,-0.687 -0.4,-1.224 0,-0.537 -0.18,-0.976 -0.4,-0.976 -0.22,0 -0.4,-0.272 -0.4,-0.605 0,-0.333 -0.157,-0.918 -0.35,-1.3 -1.498,-2.975 -2.05,-4.248 -2.05,-4.733 0,-0.309 -0.18,-0.562 -0.4,-0.562 -0.22,0 -0.4,-0.349 -0.4,-0.776 0,-0.427 -0.18,-0.888 -0.4,-1.024 -0.22,-0.136 -0.4,-0.597 -0.4,-1.024 0,-0.427 -0.18,-0.776 -0.4,-0.776 -0.22,0 -0.4,-0.36 -0.4,-0.8 0,-0.44 -0.18,-0.8 -0.4,-0.8 -0.22,0 -0.4,-0.36 -0.4,-0.8 0,-0.44 -0.18,-0.8 -0.4,-0.8 -0.22,0 -0.4,-0.345 -0.4,-0.767 0,-0.421 -0.135,-0.826 -0.3,-0.9 -0.165,-0.073 -0.733,-0.988 -1.263,-2.033 -0.529,-1.045 -1.114,-1.9 -1.3,-1.9 -0.185,0 -0.337,-0.36 -0.337,-0.8 0,-0.44 -0.18,-0.8 -0.4,-0.8 -0.22,0 -0.4,-0.36 -0.4,-0.8 0,-0.44 -0.18,-0.8 -0.4,-0.8 -0.22,0 -0.4,-0.338 -0.4,-0.751 0,-0.413 -0.27,-0.975 -0.6,-1.249 -0.33,-0.274 -0.6,-0.668 -0.6,-0.877 0,-0.208 -0.54,-1.164 -1.2,-2.123 -0.66,-0.959 -1.2,-1.937 -1.2,-2.172 0,-0.235 -0.18,-0.428 -0.4,-0.428 -0.22,0 -0.4,-0.27 -0.4,-0.6 0,-0.33 -0.18,-0.6 -0.4,-0.6 -0.22,0 -0.4,-0.27 -0.4,-0.6 0,-0.33 -0.18,-0.6 -0.4,-0.6 -0.22,0 -0.4,-0.236 -0.4,-0.525 0,-0.288 -0.36,-0.911 -0.8,-1.383 -0.44,-0.472 -0.8,-1.048 -0.8,-1.279 0,-0.231 -0.54,-0.985 -1.2,-1.676 -0.66,-0.691 -1.2,-1.416 -1.2,-1.613 0,-0.197 -0.36,-0.744 -0.8,-1.216 -0.44,-0.472 -0.8,-1.095 -0.8,-1.383 0,-0.289 -0.159,-0.525 -0.354,-0.525 -0.195,0 -1.14,-1.078 -2.1,-2.396 -0.96,-1.318 -1.881,-2.398 -2.046,-2.4 -0.165,-0.002 -0.3,-0.197 -0.3,-0.433 0,-0.235 -0.225,-0.67 -0.5,-0.965 -0.275,-0.295 -0.95,-1.135 -1.5,-1.867 -0.837,-1.112 -2.195,-2.698 -4.6,-5.368 -0.22,-0.244 -0.85,-1.042 -1.4,-1.773 -0.55,-0.731 -2.503,-2.785 -4.34,-4.564 -4.061,-3.932 -3.562,-3.433 -7.494,-7.494 -1.779,-1.837 -3.839,-3.79 -4.577,-4.34 -0.739,-0.55 -1.938,-1.569 -2.665,-2.265 -0.726,-0.696 -2.087,-1.861 -3.023,-2.59 -0.935,-0.728 -1.833,-1.509 -1.995,-1.735 -0.162,-0.225 -0.297,-0.247 -0.3,-0.049 -0.003,0.199 -0.321,0.011 -0.706,-0.417 -0.385,-0.429 -2.005,-1.741 -3.6,-2.916 -1.595,-1.176 -2.9,-2.293 -2.9,-2.483 0,-0.19 -0.236,-0.345 -0.525,-0.345 -0.288,0 -0.911,-0.36 -1.383,-0.8 -0.472,-0.44 -1.019,-0.8 -1.216,-0.8 -0.197,0 -0.922,-0.54 -1.613,-1.2 -0.691,-0.66 -1.527,-1.2 -1.859,-1.2 -0.332,0 -0.604,-0.15 -0.604,-0.332 0,-0.183 -0.495,-0.588 -1.1,-0.9 -0.605,-0.313 -1.449,-0.883 -1.875,-1.268 -0.427,-0.385 -1.012,-0.7 -1.3,-0.7 -0.289,0 -0.525,-0.18 -0.525,-0.4 0,-0.22 -0.174,-0.4 -0.388,-0.4 -0.213,0 -1.639,-0.81 -3.17,-1.8 -1.53,-0.99 -2.94,-1.8 -3.132,-1.8 -0.604,0 -2.504,-0.985 -2.507,-1.3 -0.002,-0.165 -0.363,-0.3 -0.803,-0.3 -0.44,0 -0.8,-0.155 -0.8,-0.343 0,-0.189 -1.935,-1.312 -4.3,-2.495 -2.365,-1.184 -4.36,-2.289 -4.433,-2.457 -0.074,-0.168 -0.569,-0.305 -1.1,-0.305 -0.532,0 -0.967,-0.18 -0.967,-0.4 0,-0.22 -0.36,-0.4 -0.8,-0.4 -0.44,0 -0.8,-0.18 -0.8,-0.4 0,-0.22 -0.253,-0.4 -0.562,-0.4 -0.309,0 -1.344,-0.386 -2.3,-0.857 -0.956,-0.471 -2.098,-0.993 -2.538,-1.16 -0.44,-0.167 -1.653,-0.681 -2.696,-1.143 -1.042,-0.462 -2.167,-0.84 -2.5,-0.84 -0.332,0 -0.604,-0.18 -0.604,-0.4 0,-0.22 -0.362,-0.4 -0.805,-0.4 -0.443,0 -1.118,-0.177 -1.5,-0.393 C 268.414,10.882 260.499,8.4 259.467,8.4 258.906,8.4 258.336,8.22 258.2,8 258.064,7.78 257.524,7.6 257,7.6 c -0.524,0 -1.064,-0.18 -1.2,-0.4 -0.136,-0.22 -0.777,-0.4 -1.424,-0.4 -0.647,0 -1.176,-0.18 -1.176,-0.4 0,-0.22 -0.619,-0.4 -1.376,-0.4 -0.757,0 -1.488,-0.18 -1.624,-0.4 -0.136,-0.22 -0.856,-0.4 -1.6,-0.4 -0.744,0 -1.464,-0.18 -1.6,-0.4 -0.136,-0.22 -0.946,-0.4 -1.8,-0.4 -0.854,0 -1.664,-0.18 -1.8,-0.4 -0.136,-0.22 -1.036,-0.4 -2,-0.4 -0.964,0 -1.864,-0.18 -2,-0.4 C 239.264,2.98 238.353,2.8 237.376,2.8 236.399,2.8 235.6,2.62 235.6,2.4 235.6,2.178 234.541,2 233.224,2 231.917,2 230.736,1.82 230.6,1.6 230.464,1.38 229.208,1.2 227.81,1.2 226.189,1.2 225.209,1.026 225.107,0.72 224.948,0.244 188.291,-0.109 178.7,0.273 M 324.509,196.8 c 0,0.99 0.078,1.395 0.173,0.9 0.096,-0.495 0.096,-1.305 0,-1.8 -0.095,-0.495 -0.173,-0.09 -0.173,0.9 m 0,6.4 c 0,0.99 0.078,1.395 0.173,0.9 0.096,-0.495 0.096,-1.305 0,-1.8 -0.095,-0.495 -0.173,-0.09 -0.173,0.9 m -197.28,98.596 c 1.414,0.987 2.727,1.797 2.918,1.8 0.19,0.002 -0.837,-0.806 -2.283,-1.796 -1.446,-0.99 -2.759,-1.8 -2.917,-1.8 -0.159,0 0.868,0.808 2.282,1.796 m 36.371,17.959 c 0,0.085 0.53,0.232 1.179,0.327 0.648,0.095 1.088,0.026 0.976,-0.154 -0.198,-0.321 -2.155,-0.478 -2.155,-0.173 m 21.004,4.251 c 0.134,0.217 0.803,0.394 1.486,0.394 1.511,0 1.359,-0.2 -0.41,-0.537 -0.825,-0.157 -1.228,-0.103 -1.076,0.143 m 26.596,69.968 v 6.142 l 5.5,-0.283 c 3.025,-0.155 5.591,-0.406 5.703,-0.558 0.112,-0.151 -2.363,-2.788 -5.5,-5.86 l -5.703,-5.584 v 6.143 m 34.615,1.202 c -0.128,0.206 0.132,0.348 0.576,0.315 0.445,-0.034 0.809,-0.203 0.809,-0.376 0,-0.442 -1.104,-0.394 -1.385,0.061"
       inkscape:connector-curvature="0"
       style="fill:#63539c;fill-rule:evenodd;stroke:none" />
    <path
       id="path3"
       d="m 299.207,124.124 c 1.266,1.395 8.052,11.784 9.194,14.076 0.329,0.66 0.706,1.29 0.838,1.4 1.418,1.182 8.758,18.599 10.409,24.7 0.194,0.715 0.546,1.975 0.782,2.8 0.237,0.825 0.597,2.265 0.8,3.2 0.204,0.935 0.56,2.555 0.791,3.6 1.328,5.989 1.899,10.511 2.401,19 0.653,11.032 -0.248,23.49 -2.401,33.2 -0.231,1.045 -0.587,2.665 -0.791,3.6 -0.203,0.935 -0.563,2.375 -0.8,3.2 -0.236,0.825 -0.588,2.085 -0.781,2.8 -1.625,6.015 -9.007,23.53 -10.41,24.7 -0.132,0.11 -0.509,0.74 -0.838,1.4 -4.511,9.054 -17.169,24.456 -26.827,32.643 -6.51,5.517 -15.333,11.745 -19.774,13.958 -0.66,0.329 -1.29,0.706 -1.4,0.838 -0.302,0.363 -10.689,5.381 -13.2,6.378 -2.995,1.188 -9.885,3.597 -11.6,4.054 -0.77,0.206 -2.03,0.558 -2.8,0.782 -0.77,0.224 -2.165,0.574 -3.1,0.777 -0.935,0.204 -2.555,0.56 -3.6,0.791 -2.754,0.611 -5.93,1.166 -8.9,1.557 -1.43,0.188 -3.365,0.474 -4.3,0.635 l -1.7,0.292 v 31.666 31.665 l 5.732,5.683 c 3.153,3.126 5.643,5.773 5.534,5.882 -0.11,0.11 0.356,0.199 1.034,0.199 0.678,0 1.324,-0.225 1.435,-0.5 0.149,-0.369 0.21,-0.356 0.233,0.049 0.024,0.411 0.166,0.438 0.564,0.107 0.293,-0.243 1.598,-0.478 2.9,-0.523 1.302,-0.044 2.572,-0.232 2.822,-0.417 0.249,-0.185 1.112,-0.362 1.916,-0.392 0.805,-0.03 1.557,-0.205 1.67,-0.389 0.335,-0.542 1.034,-0.383 0.725,0.165 -0.226,0.4 -0.175,0.4 0.256,0 0.297,-0.275 0.923,-0.5 1.392,-0.5 0.47,0 0.99,-0.135 1.156,-0.3 0.304,-0.301 0.507,-0.331 2.955,-0.441 0.768,-0.034 1.22,-0.227 1.076,-0.459 -0.136,-0.22 0.018,-0.4 0.343,-0.4 0.325,0 0.681,0.225 0.792,0.5 0.161,0.4 0.208,0.4 0.233,0 0.018,-0.275 0.356,-0.5 0.752,-0.5 0.396,0 0.891,-0.166 1.1,-0.368 0.209,-0.203 1.19,-0.414 2.18,-0.471 0.99,-0.056 1.989,-0.242 2.219,-0.413 0.231,-0.172 1.086,-0.357 1.9,-0.412 0.815,-0.055 1.481,-0.243 1.481,-0.418 0,-0.175 0.345,-0.318 0.767,-0.318 0.421,0 0.858,-0.225 0.969,-0.5 0.153,-0.376 0.308,-0.352 0.627,0.1 0.288,0.407 0.427,0.439 0.431,0.1 0.003,-0.275 0.445,-0.5 0.982,-0.5 0.537,0 1.076,-0.16 1.197,-0.356 0.189,-0.306 1.701,-0.667 3.81,-0.91 0.32,-0.037 1.027,-0.298 1.571,-0.58 0.544,-0.282 1.164,-0.404 1.379,-0.272 0.217,0.134 0.263,0.036 0.105,-0.22 -0.252,-0.409 1.108,-0.705 2.292,-0.499 0.181,0.031 0.215,-0.128 0.076,-0.353 -0.144,-0.234 0.144,-0.415 0.67,-0.423 0.508,-0.007 1.256,-0.264 1.663,-0.572 0.406,-0.308 0.982,-0.467 1.279,-0.353 0.297,0.114 0.937,-0.162 1.422,-0.613 0.485,-0.452 1.019,-0.736 1.188,-0.631 0.169,0.104 0.572,-0.075 0.896,-0.399 0.323,-0.323 1.226,-0.631 2.006,-0.684 0.78,-0.052 1.353,-0.201 1.273,-0.33 -0.08,-0.129 0.427,-0.465 1.126,-0.746 0.699,-0.281 1.584,-0.68 1.966,-0.885 0.382,-0.206 1.035,-0.374 1.451,-0.374 0.416,0 0.987,-0.278 1.269,-0.618 0.282,-0.34 0.71,-0.543 0.951,-0.45 0.516,0.198 1.497,-0.736 1.143,-1.089 -0.133,-0.134 -0.047,-0.243 0.191,-0.243 0.238,0 0.524,0.225 0.635,0.5 0.161,0.4 0.208,0.4 0.233,0 0.018,-0.275 0.437,-0.503 0.932,-0.506 0.728,-0.005 0.785,-0.08 0.3,-0.394 -0.495,-0.32 -0.456,-0.389 0.22,-0.394 0.979,-0.007 2.972,-0.882 2.977,-1.306 0.002,-0.165 0.408,-0.314 0.903,-0.332 0.495,-0.017 0.662,-0.126 0.372,-0.242 -0.583,-0.233 1.208,-1.326 2.174,-1.326 0.305,0 0.554,-0.18 0.554,-0.4 0,-0.22 0.36,-0.4 0.8,-0.4 0.44,0 0.8,-0.18 0.8,-0.4 0,-0.22 0.371,-0.4 0.824,-0.4 0.527,0 0.719,-0.169 0.534,-0.468 -0.194,-0.315 -0.071,-0.384 0.376,-0.213 0.366,0.141 0.666,0.082 0.666,-0.132 0,-0.213 0.36,-0.387 0.8,-0.387 0.44,0 0.8,-0.18 0.8,-0.4 0,-0.22 0.135,-0.379 0.3,-0.353 0.817,0.129 1.3,-0.103 1.3,-0.624 0,-0.362 0.299,-0.52 0.8,-0.423 0.522,0.101 0.8,-0.061 0.8,-0.466 0,-0.386 0.226,-0.533 0.6,-0.389 0.33,0.126 0.6,0.056 0.6,-0.158 0,-0.213 0.3,-0.387 0.667,-0.387 0.366,0 0.555,-0.111 0.419,-0.248 -0.484,-0.484 1.989,-2.148 3.209,-2.158 0.537,-0.005 0.578,-0.086 0.173,-0.344 -0.377,-0.238 -0.172,-0.409 0.7,-0.584 0.677,-0.135 1.232,-0.478 1.232,-0.762 0,-0.283 0.675,-0.819 1.5,-1.19 0.825,-0.371 2.109,-1.224 2.854,-1.895 0.745,-0.67 1.473,-1.219 1.617,-1.219 0.144,0 0.93,-0.63 1.746,-1.399 0.815,-0.77 1.483,-1.213 1.483,-0.984 0,0.238 0.237,0.195 0.558,-0.101 0.307,-0.284 0.487,-0.633 0.4,-0.777 -0.086,-0.144 0.383,-0.449 1.042,-0.679 0.66,-0.23 1.2,-0.528 1.2,-0.663 0,-0.134 -0.208,-0.116 -0.462,0.041 -0.279,0.173 -0.353,0.11 -0.187,-0.159 0.151,-0.244 0.539,-0.343 0.862,-0.219 0.371,0.143 0.587,-0.019 0.587,-0.441 0,-0.366 0.185,-0.552 0.411,-0.412 0.418,0.258 2.789,-1.994 2.789,-2.649 0,-0.197 0.291,-0.358 0.647,-0.358 0.356,0 1.184,-0.585 1.84,-1.3 0.656,-0.715 1.072,-1.03 0.923,-0.7 -0.176,0.392 -0.072,0.36 0.3,-0.094 0.313,-0.381 0.686,-0.576 0.83,-0.433 0.143,0.143 0.26,0.083 0.26,-0.134 0,-0.476 2.149,-2.939 2.564,-2.939 0.161,0 0.563,-0.27 0.893,-0.6 0.33,-0.33 0.484,-0.6 0.343,-0.6 -0.141,0 0.013,-0.27 0.343,-0.6 0.33,-0.33 0.803,-0.6 1.052,-0.6 0.249,0 0.341,-0.18 0.205,-0.4 -0.136,-0.22 -0.073,-0.4 0.14,-0.4 0.518,0 6.06,-5.527 6.06,-6.043 0,-0.222 0.18,-0.293 0.4,-0.157 0.22,0.136 0.4,0.044 0.4,-0.205 0,-0.249 0.27,-0.722 0.6,-1.052 0.33,-0.33 0.6,-0.484 0.6,-0.343 0,0.141 0.27,-0.013 0.6,-0.343 0.33,-0.33 0.6,-0.732 0.6,-0.893 0,-0.415 2.463,-2.564 2.939,-2.564 0.217,0 0.289,-0.105 0.161,-0.233 -0.128,-0.129 0.112,-0.624 0.533,-1.1 1.751,-1.98 1.967,-2.294 1.967,-2.867 0,-0.33 0.315,-0.601 0.7,-0.601 0.716,-10e-4 2.381,-2.135 2.2,-2.82 -0.055,-0.208 0.189,-0.379 0.543,-0.379 0.401,0 0.558,-0.221 0.417,-0.587 -0.124,-0.323 -0.025,-0.711 0.219,-0.862 0.269,-0.166 0.332,-0.092 0.159,0.187 -0.157,0.254 -0.175,0.462 -0.041,0.462 0.135,0 0.433,-0.54 0.663,-1.2 0.23,-0.659 0.535,-1.128 0.679,-1.042 0.144,0.087 0.493,-0.093 0.777,-0.4 0.296,-0.321 0.339,-0.558 0.101,-0.558 -0.229,0 0.304,-0.764 1.184,-1.698 0.879,-0.934 1.599,-1.859 1.599,-2.057 0,-0.197 0.54,-0.874 1.2,-1.505 0.66,-0.631 1.2,-1.29 1.2,-1.464 0,-0.759 1.045,-2.47 1.51,-2.473 0.28,-0.002 0.621,-0.558 0.756,-1.235 0.146,-0.73 0.364,-1.043 0.534,-0.768 0.172,0.279 0.378,0.01 0.515,-0.673 0.253,-1.265 1.621,-3.057 2.026,-2.653 0.142,0.143 0.259,-0.041 0.259,-0.407 0,-0.367 0.174,-0.667 0.387,-0.667 0.214,0 0.284,-0.27 0.158,-0.6 -0.144,-0.374 0.003,-0.6 0.389,-0.6 0.405,0 0.567,-0.278 0.466,-0.8 -0.099,-0.513 0.061,-0.8 0.447,-0.8 0.33,0 0.489,-0.18 0.353,-0.4 -0.136,-0.22 -0.046,-0.4 0.2,-0.4 0.246,0 0.336,-0.18 0.2,-0.4 -0.136,-0.22 -0.057,-0.4 0.176,-0.4 0.233,0 0.424,-0.36 0.424,-0.8 0,-0.44 0.191,-0.8 0.424,-0.8 0.233,0 0.312,-0.18 0.176,-0.4 -0.136,-0.22 -0.057,-0.4 0.176,-0.4 0.233,0 0.424,-0.36 0.424,-0.8 0,-0.44 0.18,-0.8 0.4,-0.8 0.22,0 0.4,-0.36 0.4,-0.8 0,-0.44 0.18,-0.8 0.4,-0.8 0.22,0 0.4,-0.36 0.4,-0.8 0,-0.44 0.18,-0.8 0.4,-0.8 0.22,0 0.403,-0.405 0.406,-0.9 0.005,-0.728 0.08,-0.785 0.394,-0.3 0.314,0.485 0.389,0.428 0.394,-0.3 0.003,-0.495 0.141,-0.901 0.306,-0.903 0.424,-0.005 1.299,-1.998 1.306,-2.977 0.005,-0.676 0.074,-0.715 0.394,-0.22 0.316,0.489 0.389,0.44 0.394,-0.267 0.003,-0.476 0.231,-0.957 0.506,-1.068 0.4,-0.161 0.4,-0.208 0,-0.233 -0.275,-0.018 -0.5,-0.242 -0.5,-0.499 0,-0.256 0.109,-0.357 0.243,-0.224 0.353,0.354 1.287,-0.627 1.089,-1.143 -0.093,-0.241 0.11,-0.669 0.45,-0.951 0.34,-0.282 0.618,-0.853 0.618,-1.269 0,-0.416 0.168,-1.069 0.374,-1.451 0.205,-0.382 0.604,-1.267 0.885,-1.966 0.281,-0.699 0.608,-1.211 0.726,-1.138 0.118,0.073 0.25,-0.483 0.292,-1.235 0.042,-0.752 0.359,-1.649 0.704,-1.994 0.344,-0.344 0.541,-0.765 0.437,-0.934 -0.105,-0.169 0.179,-0.703 0.631,-1.188 0.451,-0.485 0.727,-1.125 0.613,-1.422 -0.114,-0.297 0.045,-0.873 0.353,-1.279 0.308,-0.407 0.565,-1.155 0.572,-1.663 0.008,-0.526 0.189,-0.814 0.423,-0.67 0.225,0.139 0.384,0.105 0.353,-0.076 -0.206,-1.184 0.09,-2.544 0.499,-2.292 0.256,0.158 0.354,0.112 0.22,-0.105 -0.132,-0.215 -0.01,-0.835 0.272,-1.379 0.282,-0.544 0.543,-1.251 0.58,-1.571 0.243,-2.109 0.604,-3.621 0.91,-3.81 0.196,-0.121 0.356,-0.66 0.356,-1.197 0,-0.537 0.225,-0.979 0.5,-0.982 0.339,-0.004 0.307,-0.143 -0.1,-0.431 -0.452,-0.319 -0.476,-0.474 -0.1,-0.627 0.275,-0.111 0.5,-0.782 0.5,-1.489 0,-0.708 0.169,-1.458 0.375,-1.667 0.207,-0.209 0.44,-0.868 0.519,-1.465 0.078,-0.597 0.269,-1.212 0.424,-1.367 0.155,-0.155 0.282,-0.691 0.282,-1.191 0,-0.5 0.18,-1.021 0.4,-1.157 0.586,-0.362 0.49,-1.098 -0.1,-0.765 -0.4,0.226 -0.4,0.175 0,-0.256 0.275,-0.297 0.5,-0.848 0.5,-1.226 0,-0.377 0.225,-0.777 0.5,-0.888 0.4,-0.161 0.4,-0.208 0,-0.233 -0.275,-0.018 -0.5,-0.313 -0.5,-0.656 0,-0.343 0.18,-0.512 0.4,-0.376 0.232,0.144 0.425,-0.308 0.459,-1.076 0.11,-2.448 0.14,-2.651 0.441,-2.955 0.165,-0.166 0.3,-0.686 0.3,-1.156 0,-0.469 0.225,-1.095 0.5,-1.392 0.4,-0.431 0.4,-0.482 0,-0.256 -0.548,0.309 -0.707,-0.39 -0.165,-0.725 0.184,-0.113 0.359,-0.865 0.389,-1.67 0.03,-0.804 0.207,-1.667 0.392,-1.916 0.185,-0.25 0.373,-1.52 0.417,-2.822 0.045,-1.302 0.266,-2.59 0.491,-2.861 0.286,-0.345 0.254,-0.556 -0.107,-0.701 -0.396,-0.158 -0.4,-0.214 -0.017,-0.238 0.589,-0.038 0.686,-1.232 0.1,-1.232 -0.22,0 -0.4,-0.145 -0.4,-0.322 0,-0.42 -99.066,-99.426 -99.702,-99.642 -0.292,-0.099 -0.248,0.095 0.109,0.488 M 155.607,331.8 c 18.138,18.15 33.026,33 33.085,33 0.06,0 0.108,-9.09 0.108,-20.2 v -20.2 h -1.92 c -1.056,0 -2.091,-0.165 -2.3,-0.366 -0.209,-0.202 -1.46,-0.46 -2.78,-0.574 -6.746,-0.583 -20.198,-3.884 -25.8,-6.33 -0.942,-0.412 -1.526,-0.644 -3.7,-1.473 -0.495,-0.189 -1.682,-0.729 -2.638,-1.2 -0.956,-0.471 -1.991,-0.857 -2.3,-0.857 -0.309,0 -0.562,-0.18 -0.562,-0.4 0,-0.22 -0.36,-0.4 -0.8,-0.4 -0.44,0 -0.8,-0.18 -0.8,-0.4 0,-0.22 -0.36,-0.4 -0.8,-0.4 -0.44,0 -0.8,-0.18 -0.8,-0.4 0,-0.22 -0.36,-0.4 -0.8,-0.4 -0.44,0 -0.8,-0.18 -0.8,-0.4 0,-0.22 -0.345,-0.4 -0.767,-0.4 -0.421,0 -0.826,-0.135 -0.9,-0.3 -0.167,-0.376 -2.297,-1.675 -3.233,-1.971 -0.385,-0.122 -0.7,-0.381 -0.7,-0.576 0,-0.194 -0.193,-0.353 -0.428,-0.353 -0.235,0 -1.213,-0.54 -2.172,-1.2 -0.959,-0.66 -1.844,-1.2 -1.967,-1.2 -0.311,0 -6.663,-4.412 -7.608,-5.284 -0.427,-0.394 -0.96,-0.716 -1.185,-0.716 -0.226,0 14.43,14.85 32.567,33"
       inkscape:connector-curvature="0"
       style="fill:#4c3c84;fill-rule:evenodd;stroke:none" />
    <path
       id="path4-2"
       d="m 190.8,75.656 c -6.222,0.389 -11.362,1.095 -16.9,2.323 -1.045,0.231 -2.665,0.587 -3.6,0.791 -1.976,0.43 -5.923,1.521 -8.5,2.35 -27.59,8.872 -51.705,27.629 -67.469,52.48 -5.581,8.798 -11.384,21.555 -13.964,30.7 -0.202,0.715 -0.561,1.975 -0.797,2.8 -0.237,0.825 -0.597,2.265 -0.8,3.2 -0.204,0.935 -0.56,2.555 -0.791,3.6 -1.568,7.072 -2.878,18.892 -2.915,26.3 -0.025,4.951 0.6,13.932 1.016,14.6 0.262,0.421 0.313,0.235 0.172,-0.623 -2.375,-14.436 1.75,-45.62 7.802,-58.977 0.424,-0.935 0.807,-1.864 1.567,-3.8 0.662,-1.686 5.375,-11.266 6.198,-12.6 3.636,-5.892 5.424,-8.648 7.525,-11.6 1.33,-1.87 2.523,-3.49 2.651,-3.6 0.128,-0.11 0.647,-0.74 1.153,-1.4 4.193,-5.465 13.587,-14.859 19.052,-19.052 0.66,-0.506 1.29,-1.025 1.4,-1.153 0.11,-0.128 1.73,-1.321 3.6,-2.651 2.952,-2.101 5.708,-3.889 11.6,-7.525 1.316,-0.812 10.735,-5.448 12.7,-6.251 1.955,-0.799 3.135,-1.29 3.9,-1.623 6.603,-2.877 21.887,-6.449 32.4,-7.574 4.869,-0.52 23.221,-0.277 28,0.372 9.131,1.24 23.077,4.728 28.8,7.204 0.44,0.19 1.25,0.526 1.8,0.746 2.177,0.871 3.191,1.335 8.2,3.753 2.86,1.38 5.83,2.898 6.6,3.373 5.892,3.636 8.648,5.424 11.6,7.525 1.87,1.33 3.49,2.52 3.6,2.643 0.11,0.123 1.19,1.03 2.4,2.014 10.354,8.425 22.021,21.975 27.898,32.399 0.434,0.77 1.261,2.21 1.838,3.2 6.601,11.327 11.948,27.063 14.205,41.8 4.097,26.754 -1.545,57.875 -14.358,79.2 -0.66,1.1 -1.319,2.27 -1.464,2.6 -5.185,11.86 -31.859,38.534 -43.719,43.719 -0.33,0.145 -1.5,0.804 -2.6,1.464 -12.263,7.368 -28.829,12.668 -47.2,15.099 l -2.4,0.318 -0.003,38.2 -0.003,38.2 0.105,-37.867 0.105,-37.868 2.018,-0.432 c 1.109,-0.238 2.636,-0.433 3.392,-0.433 0.756,0 2.142,-0.173 3.08,-0.384 0.938,-0.211 2.786,-0.584 4.106,-0.83 1.32,-0.245 3.03,-0.601 3.8,-0.791 0.77,-0.189 2.3,-0.557 3.4,-0.816 13.061,-3.077 32.081,-11.973 42,-19.643 11.777,-9.108 22.863,-20.094 27.278,-27.031 0.387,-0.608 0.813,-1.195 0.946,-1.305 0.544,-0.447 5.167,-7.64 7.12,-11.077 5.328,-9.374 10.3,-21.658 12.435,-30.723 0.259,-1.1 0.627,-2.63 0.816,-3.4 0.19,-0.77 0.539,-2.435 0.775,-3.7 0.237,-1.265 0.607,-3.245 0.823,-4.4 1.459,-7.793 1.694,-26.756 0.446,-35.9 -0.641,-4.69 -2.244,-12.736 -3.209,-16.1 -0.236,-0.825 -0.592,-2.085 -0.789,-2.8 C 312.609,139.267 290.744,109.117 270.777,97.323 270.13,96.94 269.6,96.486 269.6,96.314 269.6,96.141 269.412,96 269.182,96 c -0.23,0 -1.715,-0.859 -3.3,-1.91 -1.585,-1.05 -3.422,-2.175 -4.082,-2.499 -0.66,-0.324 -1.29,-0.693 -1.4,-0.82 -1.179,-1.354 -18.802,-8.802 -24.6,-10.396 -0.66,-0.181 -1.92,-0.534 -2.8,-0.783 -0.88,-0.249 -2.365,-0.619 -3.3,-0.822 -0.935,-0.204 -2.555,-0.56 -3.6,-0.791 -10.51,-2.33 -22.527,-3.121 -35.3,-2.323 M 76.4,217.91 c 0,1.343 0.163,2.543 0.362,2.667 0.334,0.206 0.126,-4.553 -0.216,-4.944 -0.08,-0.091 -0.146,0.933 -0.146,2.277 m 0.8,5 c 0,1.013 0.178,1.953 0.395,2.087 0.252,0.156 0.304,-0.452 0.144,-1.676 C 77.407,220.79 77.2,220.632 77.2,222.91 m 0.806,3.723 c 0.003,0.642 0.19,1.437 0.415,1.767 0.293,0.43 0.333,0.146 0.141,-1 -0.332,-1.984 -0.564,-2.304 -0.556,-0.767 m 0.834,3.643 c -0.022,0.702 0.14,1.388 0.36,1.524 0.46,0.284 0.46,-0.364 0,-1.8 -0.306,-0.955 -0.322,-0.943 -0.36,0.276 m 0.788,3 c -0.015,0.592 0.152,1.188 0.372,1.324 0.478,0.295 0.478,-0.489 0,-1.6 -0.307,-0.714 -0.347,-0.685 -0.372,0.276 m 0.8,2.8 c -0.015,0.592 0.152,1.188 0.372,1.324 0.478,0.295 0.478,-0.489 0,-1.6 -0.307,-0.714 -0.347,-0.685 -0.372,0.276 m 0.784,2.324 c 0,0.33 0.175,0.87 0.388,1.2 0.345,0.533 0.388,0.533 0.388,0 0,-0.33 -0.175,-0.87 -0.388,-1.2 -0.345,-0.533 -0.388,-0.533 -0.388,0 m 0.815,2.273 c -0.103,1.799 7.926,19.684 9.574,21.327 0.11,0.11 0.466,0.74 0.791,1.4 1.573,3.199 8.19,12.511 12.364,17.4 5.649,6.618 19.644,19.541 19.644,18.14 0,-0.195 -0.429,-0.621 -0.954,-0.947 -3.685,-2.288 -11.715,-9.956 -18.648,-17.806 C 97.107,271.479 88.461,256.826 83.8,244.6 c -1.492,-3.913 -1.742,-4.467 -1.773,-3.927 m 42.774,58.801 c 0,0.18 0.765,0.826 1.7,1.438 0.934,0.611 2.141,1.421 2.682,1.8 0.541,0.378 0.865,0.496 0.722,0.261 -0.395,-0.644 -5.105,-3.873 -5.104,-3.499 m 5.599,4.054 c 0,0.206 0.54,0.599 1.2,0.872 0.66,0.273 1.2,0.655 1.2,0.849 0,0.193 0.197,0.351 0.438,0.351 0.241,0 0.916,0.339 1.5,0.753 2.755,1.953 15.538,8.477 17.662,9.014 0.55,0.139 0.19,-0.139 -0.8,-0.618 -7.776,-3.763 -10.87,-5.326 -12.6,-6.366 -1.1,-0.661 -2.27,-1.318 -2.6,-1.461 -0.33,-0.143 -1.59,-0.917 -2.8,-1.721 -3.019,-2.006 -3.2,-2.1 -3.2,-1.673 M 158,317.6 c 0.33,0.213 0.87,0.388 1.2,0.388 0.533,0 0.533,-0.043 0,-0.388 -0.33,-0.213 -0.87,-0.388 -1.2,-0.388 -0.533,0 -0.533,0.043 0,0.388 m 2,0.554 c 0,0.258 3.902,1.447 4.675,1.424 0.399,-0.011 -0.355,-0.369 -1.675,-0.794 -2.446,-0.787 -3,-0.903 -3,-0.63 m 5.771,1.8 c 0.223,0.36 1.709,0.736 4.229,1.069 0.77,0.102 0.14,-0.172 -1.4,-0.608 -3.306,-0.937 -3.102,-0.904 -2.829,-0.461 m 6.013,1.62 c 0.145,0.235 0.913,0.426 1.706,0.426 1.765,0 1.613,-0.203 -0.429,-0.572 -1.049,-0.19 -1.456,-0.143 -1.277,0.146 m 3.53,0.671 c 0.292,0.294 2.698,0.73 6.486,1.174 0.88,0.103 2.814,0.382 4.298,0.62 l 2.698,0.433 0.105,37.864 0.105,37.864 -0.003,-38.2 -0.003,-38.2 -3.4,-0.314 c -1.87,-0.173 -4.3,-0.482 -5.4,-0.688 -3.797,-0.709 -5.199,-0.868 -4.886,-0.553"
       inkscape:connector-curvature="0"
       style="fill:#98518e;fill-rule:evenodd;stroke:none" />
  </g>
</svg>
