<svg height="496pt" viewBox="0 0 496 496" width="496pt" xmlns="http://www.w3.org/2000/svg"><path d="m360 8h-288l-64 64v384h224v-9.921875c0-8.398437 3.28125-16.316406 8.878906-22.078125l39.121094-15.839844 56-16.160156v-26.640625l-10.640625-7.121094c-10.640625-7.039062-17.839844-18-20.398437-30.238281h-.960938c-6.640625 0-12.640625-2.71875-16.960938-7.039062-4.320312-4.320313-7.039062-10.320313-7.039062-16.960938 0 0-16-24-16-64l24 8-.398438-1.199219c-5.042968-15.121093-7.601562-30.878906-7.601562-46.800781l32 8-8-24c24 0 42.398438 3.359375 56 7.601562zm0 0" fill="#e6e9ed"/><g fill="#fcd770"><path d="m200 248c0 8.835938-7.164062 16-16 16s-16-7.164062-16-16 7.164062-16 16-16 16 7.164062 16 16zm0 0"/><path d="m200 312c0 8.835938-7.164062 16-16 16s-16-7.164062-16-16 7.164062-16 16-16 16 7.164062 16 16zm0 0"/><path d="m200 184c0 8.835938-7.164062 16-16 16s-16-7.164062-16-16 7.164062-16 16-16 16 7.164062 16 16zm0 0"/><path d="m200 120c0 8.835938-7.164062 16-16 16s-16-7.164062-16-16 7.164062-16 16-16 16 7.164062 16 16zm0 0"/><path d="m136 312c0 8.835938-7.164062 16-16 16s-16-7.164062-16-16 7.164062-16 16-16 16 7.164062 16 16zm0 0"/><path d="m136 248c0 8.835938-7.164062 16-16 16s-16-7.164062-16-16 7.164062-16 16-16 16 7.164062 16 16zm0 0"/><path d="m136 184c0 8.835938-7.164062 16-16 16s-16-7.164062-16-16 7.164062-16 16-16 16 7.164062 16 16zm0 0"/><path d="m136 120c0 8.835938-7.164062 16-16 16s-16-7.164062-16-16 7.164062-16 16-16 16 7.164062 16 16zm0 0"/><path d="m72 312c0 8.835938-7.164062 16-16 16s-16-7.164062-16-16 7.164062-16 16-16 16 7.164062 16 16zm0 0"/><path d="m72 248c0 8.835938-7.164062 16-16 16s-16-7.164062-16-16 7.164062-16 16-16 16 7.164062 16 16zm0 0"/><path d="m72 184c0 8.835938-7.164062 16-16 16s-16-7.164062-16-16 7.164062-16 16-16 16 7.164062 16 16zm0 0"/><path d="m72 120c0 8.835938-7.164062 16-16 16s-16-7.164062-16-16 7.164062-16 16-16 16 7.164062 16 16zm0 0"/></g><path d="m72 8v64h-64zm0 0" fill="#ff826e"/><path d="m280 408.160156-24.878906 7.199219c-5.519532 1.601563-10.480469 4.640625-14.242188 8.640625h-200.878906v-64h240zm0 0" fill="#ffeaa7"/><path d="m392 40h32v48h-32zm0 0" fill="#b4dd7f"/><path d="m392 40v48h-144v-48zm0 0" fill="#cf9e76"/><path d="m248 40v48l-48-24zm0 0" fill="#ffeaa7"/><path d="m480.960938 47.039062c4.320312 4.320313 7.039062 10.320313 7.039062 16.960938 0 13.28125-10.71875 24-24 24h-40v-48h40c6.640625 0 12.640625 2.71875 16.960938 7.039062zm0 0" fill="#ffeaa7"/><path d="m304 280c-13.28125 0-24 10.71875-24 24 0 0-16-24-16-64l24 8-.398438-1.199219c-5.042968-15.121093-7.601562-30.878906-7.601562-46.800781l32 8-8-24c24 0 42.398438 3.359375 56 7.601562 22.640625 7.039063 32 16.398438 32 16.398438l8-16c24 32 24 56 24 56l24-8c0 40-8 64-8 64 0-6.640625-2.71875-12.640625-7.039062-16.960938-4.320313-4.320312-10.320313-7.039062-16.960938-7.039062l-.320312.078125c-.640626-4-2.558594-7.597656-5.359376-10.398437-3.519531-3.519532-8.398437-5.679688-13.761718-5.679688-2.957032 0-6 .71875-8.636719 2.078125l-27.921875 13.921875-27.921875-13.921875c-2.636719-1.359375-5.679687-2.078125-8.636719-2.078125-9.601562 0-17.519531 6.960938-19.121094 16.078125zm0 0" fill="#b27946"/><path d="m464.878906 415.359375-80.878906-23.359375h-48l-56 16.160156-24.878906 7.199219c-5.519532 1.601563-10.480469 4.640625-14.242188 8.640625-5.597656 5.761719-8.878906 13.679688-8.878906 22.078125v41.921875h256v-41.921875c0-14.238281-9.441406-26.796875-23.121094-30.71875zm0 0" fill="#b4dd7f"/><path d="m384 365.359375v26.640625l-24 40-24-40v-26.640625l9.359375 6.242187c4.320313 2.878907 9.441406 4.398438 14.640625 4.398438s10.320312-1.519531 14.640625-4.398438zm0 0" fill="#f5e0cd"/><path d="m416 318.320312v-34.878906c0-1.121094-.078125-2.234375-.320312-3.363281l.320312-.078125c6.640625 0 12.640625 2.71875 16.960938 7.039062 4.320312 4.320313 7.039062 10.320313 7.039062 16.960938 0 13.28125-10.71875 24-24 24h-.960938c.640626-3.199219.960938-6.398438.960938-9.679688zm0 0" fill="#f5e0cd"/><path d="m304 318.320312c0 3.28125.320312 6.480469.960938 9.679688h-.960938c-6.640625 0-12.640625-2.71875-16.960938-7.039062-4.320312-4.320313-7.039062-10.320313-7.039062-16.960938 0-13.28125 10.71875-24 24-24l.320312.078125c-.242187 1.121094-.320312 2.242187-.320312 3.363281zm0 0" fill="#f5e0cd"/><path d="m415.039062 328c-2.558593 12.238281-9.757812 23.199219-20.398437 30.238281l-10.640625 7.121094-9.359375 6.242187c-4.320313 2.878907-9.441406 4.398438-14.640625 4.398438s-10.320312-1.519531-14.640625-4.398438l-9.359375-6.242187-10.640625-7.121094c-10.640625-7.039062-17.839844-18-20.398437-30.238281-.640626-3.199219-.960938-6.398438-.960938-9.679688v-34.878906c0-1.121094.078125-2.234375.320312-3.363281 1.601563-9.117187 9.519532-16.078125 19.121094-16.078125 2.957032 0 6 .71875 8.636719 2.078125l27.921875 13.921875 27.921875-13.921875c2.636719-1.359375 5.679687-2.078125 8.636719-2.078125 5.363281 0 10.242187 2.160156 13.761718 5.679688 2.800782 2.800781 4.71875 6.398437 5.359376 10.398437.242187 1.121094.320312 2.242187.320312 3.363281v34.878906c0 3.28125-.320312 6.480469-.960938 9.679688zm0 0" fill="#f0d0b4"/><path d="m467.089844 407.640625-75.089844-21.65625v-16.367187l7.0625-4.714844c10.691406-7.125 18.328125-17.558594 22.144531-29.429688 14.570313-2.410156 25.746094-14.625 26.609375-29.65625 1.335938-4.304687 8.183594-28.167968 8.183594-65.816406v-11.097656l-25.382812 8.464844c-2.28125-10.816407-8.3125-28.953126-24.21875-50.167969l-7.765626-10.351563-9.527343 19.0625c-4.800781-3.015625-11.753907-6.671875-21.105469-10.03125v-89.878906h96c17.648438 0 32-14.351562 32-32s-14.351562-32-32-32h-96v-32h-299.3125l-68.6875 68.6875v395.3125h224v32h272v-49.929688c0-17.710937-11.886719-33.519531-28.910156-38.429687zm-123.089844-27.671875c4.9375 2.597656 10.375 4.03125 16 4.03125s11.0625-1.433594 16-4.03125v9.816406l-16 26.671875-16-26.671875zm64-61.65625c0 13.398438-6.664062 25.839844-17.816406 33.28125l-19.96875 13.308594c-6.085938 4.050781-14.359375 4.050781-20.4375 0l-19.96875-13.308594c-11.144532-7.433594-17.808594-19.882812-17.808594-33.28125v-34.898438c0-6.292968 5.121094-11.414062 11.414062-11.414062 1.761719 0 3.53125.414062 5.105469 1.199219l31.480469 15.746093 31.464844-15.738281c1.582031-.800781 3.359375-1.207031 5.121094-1.207031 6.292968 0 11.414062 5.121094 11.414062 11.414062zm16-.535156v-27.554688c4.761719 2.777344 8 7.882813 8 13.777344s-3.238281 11-8 13.777344zm-29.808594-96.273438 6.878906-13.761718c14.496094 23.496093 14.929688 40.113281 14.929688 40.257812v11.105469l23.785156-7.929688c-.449218 11.417969-1.546875 21.105469-2.761718 28.894531-4.261719-3.75-9.464844-6.421874-15.269532-7.484374-4.21875-9.746094-13.90625-16.585938-25.167968-16.585938-4.226563 0-8.457032 1-12.265626 2.886719l-24.320312 12.167969-24.335938-12.167969c-3.792968-1.886719-8.023437-2.886719-12.25-2.886719-11.269531 0-20.957031 6.839844-25.167968 16.585938-7.582032 1.382812-14.140625 5.484374-18.855469 11.207031-2.917969-8.097657-5.847656-18.976563-6.941406-32.546875l28.199219 9.402344-5.472657-16.410157c-3.671875-11.007812-5.945312-22.367187-6.800781-33.894531l35.816406 8.960938-9.007812-27.03125c50.929687 2.460937 70.992187 21.230468 71.160156 21.390624zm-106.191406 82.496094c0-5.894531 3.238281-11 8-13.777344v27.554688c-4.761719-2.777344-8-7.882813-8-13.777344zm-48-228.945312-22.113281-11.054688 22.113281-11.054688zm16-27.054688h128v32h-128zm144 0h16v32h-16zm80 16c0 8.824219-7.175781 16-16 16h-32v-32h32c8.824219 0 16 7.175781 16 16zm-416-36.6875v36.6875h-36.6875zm-48 420.6875v-368h64v-64h272v16h-105.886719l-64 32 64 32h105.886719v85.175781c-12.863281-3.039062-28.703125-5.175781-48-5.175781h-11.097656l6.898437 20.703125-27.800781-6.949219v10.246094c0 12.023438 1.382812 23.953125 4.121094 35.609375l-20.121094-6.707031v11.097656c0 36.34375 12.480469 60.265625 16.273438 66.695312 1.246093 14.625 12.238281 26.417969 26.519531 28.777344 3.824219 11.871094 11.464843 22.3125 22.144531 29.429688l7.0625 4.714844v16.367187l-40 11.535156v-45.519531h-256v80h194.679688c-1.6875 4.425781-2.679688 9.160156-2.679688 14.070312v1.929688zm221.847656-32h-189.847656v-48h224v34.136719l-19.089844 5.503906c-5.703125 1.648437-10.757812 4.597656-15.0625 8.359375zm242.152344 64h-41.441406l-6.710938-33.566406-15.6875 3.140625 6.078125 30.425781h-124.476562l6.085937-30.433594-15.6875-3.140625-6.71875 33.574219h-41.441406v-33.929688c0-10.621093 7.136719-20.109374 17.351562-23.054687l74.953126-21.625 27.695312 46.152344 27.695312-46.160157 74.953126 21.625c10.214843 2.953126 17.351562 12.441407 17.351562 23.0625zm0 0"/><path d="m56 144c13.230469 0 24-10.769531 24-24s-10.769531-24-24-24-24 10.769531-24 24 10.769531 24 24 24zm0-32c4.40625 0 8 3.59375 8 8s-3.59375 8-8 8-8-3.59375-8-8 3.59375-8 8-8zm0 0"/><path d="m56 208c13.230469 0 24-10.769531 24-24s-10.769531-24-24-24-24 10.769531-24 24 10.769531 24 24 24zm0-32c4.40625 0 8 3.59375 8 8s-3.59375 8-8 8-8-3.59375-8-8 3.59375-8 8-8zm0 0"/><path d="m56 272c13.230469 0 24-10.769531 24-24s-10.769531-24-24-24-24 10.769531-24 24 10.769531 24 24 24zm0-32c4.40625 0 8 3.59375 8 8s-3.59375 8-8 8-8-3.59375-8-8 3.59375-8 8-8zm0 0"/><path d="m56 336c13.230469 0 24-10.769531 24-24s-10.769531-24-24-24-24 10.769531-24 24 10.769531 24 24 24zm0-32c4.40625 0 8 3.585938 8 8s-3.59375 8-8 8-8-3.585938-8-8 3.59375-8 8-8zm0 0"/><path d="m120 144c13.230469 0 24-10.769531 24-24s-10.769531-24-24-24-24 10.769531-24 24 10.769531 24 24 24zm0-32c4.40625 0 8 3.59375 8 8s-3.59375 8-8 8-8-3.59375-8-8 3.59375-8 8-8zm0 0"/><path d="m120 208c13.230469 0 24-10.769531 24-24s-10.769531-24-24-24-24 10.769531-24 24 10.769531 24 24 24zm0-32c4.40625 0 8 3.59375 8 8s-3.59375 8-8 8-8-3.59375-8-8 3.59375-8 8-8zm0 0"/><path d="m120 272c13.230469 0 24-10.769531 24-24s-10.769531-24-24-24-24 10.769531-24 24 10.769531 24 24 24zm0-32c4.40625 0 8 3.59375 8 8s-3.59375 8-8 8-8-3.59375-8-8 3.59375-8 8-8zm0 0"/><path d="m120 336c13.230469 0 24-10.769531 24-24s-10.769531-24-24-24-24 10.769531-24 24 10.769531 24 24 24zm0-32c4.40625 0 8 3.585938 8 8s-3.59375 8-8 8-8-3.585938-8-8 3.59375-8 8-8zm0 0"/><path d="m184 144c13.230469 0 24-10.769531 24-24s-10.769531-24-24-24-24 10.769531-24 24 10.769531 24 24 24zm0-32c4.40625 0 8 3.59375 8 8s-3.59375 8-8 8-8-3.59375-8-8 3.59375-8 8-8zm0 0"/><path d="m184 160c-13.230469 0-24 10.769531-24 24s10.769531 24 24 24 24-10.769531 24-24-10.769531-24-24-24zm0 32c-4.40625 0-8-3.59375-8-8s3.59375-8 8-8 8 3.59375 8 8-3.59375 8-8 8zm0 0"/><path d="m184 224c-13.230469 0-24 10.769531-24 24s10.769531 24 24 24 24-10.769531 24-24-10.769531-24-24-24zm0 32c-4.40625 0-8-3.59375-8-8s3.59375-8 8-8 8 3.59375 8 8-3.59375 8-8 8zm0 0"/><path d="m184 288c-13.230469 0-24 10.769531-24 24s10.769531 24 24 24 24-10.769531 24-24-10.769531-24-24-24zm0 32c-4.40625 0-8-3.585938-8-8s3.59375-8 8-8 8 3.585938 8 8-3.59375 8-8 8zm0 0"/><path d="m64 384h16v16h-16zm0 0"/><path d="m96 384h160v16h-160zm0 0"/><path d="m96 32h64v16h-64zm0 0"/><path d="m96 64h64v16h-64zm0 0"/></svg>